<svg xmlns="http://www.w3.org/2000/svg" viewBox="0 0 320 80" fill="none">
  <defs>
    <linearGradient id="glow" x1="0%" y1="0%" x2="100%" y2="100%">
      <stop offset="0%" stop-color="#E879A8"/>
      <stop offset="50%" stop-color="#B48EE0"/>
      <stop offset="100%" stop-color="#5B9EF4"/>
    </linearGradient>
    <linearGradient id="ai-grad" x1="0%" y1="0%" x2="100%" y2="0%">
      <stop offset="0%" stop-color="#B48EE0"/>
      <stop offset="100%" stop-color="#5B9EF4"/>
    </linearGradient>
  </defs>
  <!-- Sparkle icon -->
  <g transform="translate(8, 12)">
    <path d="M28 4 L31 18 L44 22 L31 26 L28 40 L25 26 L12 22 L25 18 Z" fill="url(#glow)" opacity="0.9"/>
    <path d="M14 8 L15.5 14 L22 16 L15.5 18 L14 24 L12.5 18 L6 16 L12.5 14 Z" fill="url(#ai-grad)" opacity="0.6"/>
    <path d="M38 30 L39 34 L43 35 L39 36 L38 40 L37 36 L33 35 L37 34 Z" fill="#E879A8" opacity="0.5"/>
  </g>
  <!-- Text -->
  <text x="62" y="38" font-family="'Playfair Display', Georgia, serif" font-size="28" font-weight="700" letter-spacing="1">
    <tspan fill="#2D2D3F">Girl Gone</tspan>
  </text>
  <text x="62" y="64" font-family="'Inter', 'Helvetica Neue', sans-serif" font-size="30" font-weight="800" letter-spacing="4" fill="url(#ai-grad)">AI</text>
  <text x="108" y="64" font-family="'Inter', 'Helvetica Neue', sans-serif" font-size="11" font-weight="500" letter-spacing="3" fill="#9B8FB8" text-transform="uppercase">digital products</text>
</svg>
