<svg xmlns="http://www.w3.org/2000/svg" viewBox="0 0 600 400" width="600" height="400">
  <defs>
    <linearGradient id="bg_07_content_creator_prompts" x1="0%" y1="0%" x2="100%" y2="100%">
      <stop offset="0%" stop-color="#3B82F6" stop-opacity="0.25"/>
      <stop offset="100%" stop-color="#2563EB" stop-opacity="0.4"/>
    </linearGradient>
    <radialGradient id="glow_07_content_creator_prompts" cx="50%" cy="45%" r="50%">
      <stop offset="0%" stop-color="#3B82F6" stop-opacity="0.12"/>
      <stop offset="100%" stop-color="#2563EB" stop-opacity="0"/>
    </radialGradient>
    <marker id="arrowhead" markerWidth="6" markerHeight="4" refX="6" refY="2" orient="auto">
      <polygon points="0 0, 6 2, 0 4" fill="#3B82F6" opacity="0.3"/>
    </marker>
  </defs>

  <!-- Dark background -->
  <rect width="600" height="400" rx="16" fill="#0A0A14"/>

  <!-- Gradient overlay -->
  <rect width="600" height="400" rx="16" fill="url(#bg_07_content_creator_prompts)"/>

  <!-- Center glow -->
  <ellipse cx="300" cy="180" rx="250" ry="180" fill="url(#glow_07_content_creator_prompts)"/>

  <!-- Decorative elements -->
  <g>
    <line x1="246" y1="273" x2="235" y2="180" stroke="#3B82F6" stroke-width="0.8" opacity="0.054581406977664906"/>
    <line x1="246" y1="273" x2="205" y2="208" stroke="#3B82F6" stroke-width="0.8" opacity="0.0821783481761734"/>
    <line x1="246" y1="273" x2="411" y2="155" stroke="#3B82F6" stroke-width="0.8" opacity="0.07684880476115148"/>
    <line x1="246" y1="273" x2="317" y2="79" stroke="#3B82F6" stroke-width="0.8" opacity="0.07333145174121246"/>
    <line x1="464" y1="111" x2="205" y2="208" stroke="#3B82F6" stroke-width="0.8" opacity="0.08481891335981373"/>
    <line x1="464" y1="111" x2="317" y2="79" stroke="#3B82F6" stroke-width="0.8" opacity="0.059800116558984234"/>
    <line x1="235" y1="180" x2="411" y2="155" stroke="#3B82F6" stroke-width="0.8" opacity="0.04930265470347929"/>
    <line x1="235" y1="180" x2="317" y2="79" stroke="#3B82F6" stroke-width="0.8" opacity="0.06304377775333656"/>
    <line x1="486" y1="183" x2="205" y2="208" stroke="#3B82F6" stroke-width="0.8" opacity="0.08833322798712395"/>
    <line x1="205" y1="208" x2="411" y2="155" stroke="#3B82F6" stroke-width="0.8" opacity="0.08694900587400459"/>
    <line x1="411" y1="155" x2="317" y2="79" stroke="#3B82F6" stroke-width="0.8" opacity="0.07400879939238711"/>
    <circle cx="246" cy="273" r="3" fill="#2563EB" opacity="0.1393750392393003"/>
    <circle cx="464" cy="111" r="3" fill="#2563EB" opacity="0.09317712636714853"/>
    <circle cx="235" cy="180" r="3" fill="#2563EB" opacity="0.15051762921629364"/>
    <circle cx="486" cy="183" r="3" fill="#2563EB" opacity="0.10999293895562882"/>
    <circle cx="205" cy="208" r="3" fill="#2563EB" opacity="0.14074839466406044"/>
    <circle cx="411" cy="155" r="3" fill="#2563EB" opacity="0.11199599435596393"/>
    <circle cx="317" cy="79" r="3" fill="#2563EB" opacity="0.09845370993304477"/>
  </g>

  <!-- Border -->
  <rect width="596" height="396" x="2" y="2" rx="14" fill="none" stroke="#3B82F6" stroke-width="1" opacity="0.2"/>

  <!-- Category label at top -->
  <rect x="24" y="24" width="163" height="28" rx="6" fill="#3B82F6" opacity="0.2"/>
  <text x="38" y="43" font-family="'Poppins', 'Segoe UI', Arial, sans-serif" font-size="11" font-weight="700" fill="#3B82F6" letter-spacing="1.5" text-transform="uppercase">AI Prompt Packs</text>

  <!-- Icon -->
  <text x="300" y="150" text-anchor="middle" font-size="48" fill="#3B82F6" opacity="0.4">⚛</text>

  <!-- Product title -->
  <text x="300" y="200" text-anchor="middle" font-family="'Poppins', 'Segoe UI', Arial, sans-serif" font-size="26" font-weight="800" fill="white">
      <tspan x="300" dy="0">Content Creator AI Prompt</tspan>
      <tspan x="300" dy="34">Pack</tspan>
  </text>

  <!-- Bottom line accent -->
  <line x1="200" y1="340" x2="400" y2="340" stroke="#3B82F6" stroke-width="2" opacity="0.3"/>

  <!-- Girl Gone AI branding -->
  <text x="300" y="370" text-anchor="middle" font-family="'Poppins', 'Segoe UI', Arial, sans-serif" font-size="12" font-weight="600" fill="white" opacity="0.45" letter-spacing="3">GIRL GONE AI</text>
</svg>