<svg xmlns="http://www.w3.org/2000/svg" viewBox="0 0 600 400" width="600" height="400">
  <defs>
    <linearGradient id="bg_08_coding_assistant_prompts" x1="0%" y1="0%" x2="100%" y2="100%">
      <stop offset="0%" stop-color="#3B82F6" stop-opacity="0.25"/>
      <stop offset="100%" stop-color="#2563EB" stop-opacity="0.4"/>
    </linearGradient>
    <radialGradient id="glow_08_coding_assistant_prompts" cx="50%" cy="45%" r="50%">
      <stop offset="0%" stop-color="#3B82F6" stop-opacity="0.12"/>
      <stop offset="100%" stop-color="#2563EB" stop-opacity="0"/>
    </radialGradient>
    <marker id="arrowhead" markerWidth="6" markerHeight="4" refX="6" refY="2" orient="auto">
      <polygon points="0 0, 6 2, 0 4" fill="#3B82F6" opacity="0.3"/>
    </marker>
  </defs>

  <!-- Dark background -->
  <rect width="600" height="400" rx="16" fill="#0A0A14"/>

  <!-- Gradient overlay -->
  <rect width="600" height="400" rx="16" fill="url(#bg_08_coding_assistant_prompts)"/>

  <!-- Center glow -->
  <ellipse cx="300" cy="180" rx="250" ry="180" fill="url(#glow_08_coding_assistant_prompts)"/>

  <!-- Decorative elements -->
  <g>
    <line x1="117" y1="311" x2="358" y2="125" stroke="#3B82F6" stroke-width="0.8" opacity="0.0842103157812541"/>
    <line x1="117" y1="311" x2="277" y2="252" stroke="#3B82F6" stroke-width="0.8" opacity="0.05107783157272836"/>
    <line x1="117" y1="311" x2="343" y2="279" stroke="#3B82F6" stroke-width="0.8" opacity="0.08663511173796035"/>
    <line x1="277" y1="252" x2="70" y2="68" stroke="#3B82F6" stroke-width="0.8" opacity="0.0977012036884542"/>
    <line x1="277" y1="252" x2="182" y2="203" stroke="#3B82F6" stroke-width="0.8" opacity="0.057993669270235325"/>
    <line x1="277" y1="252" x2="343" y2="279" stroke="#3B82F6" stroke-width="0.8" opacity="0.0400598327982334"/>
    <line x1="489" y1="224" x2="70" y2="68" stroke="#3B82F6" stroke-width="0.8" opacity="0.061839826874335174"/>
    <line x1="182" y1="203" x2="343" y2="279" stroke="#3B82F6" stroke-width="0.8" opacity="0.08209973322666872"/>
    <circle cx="117" cy="311" r="3" fill="#2563EB" opacity="0.08171253435912716"/>
    <circle cx="358" cy="125" r="3" fill="#2563EB" opacity="0.1710649780412723"/>
    <circle cx="277" cy="252" r="3" fill="#2563EB" opacity="0.10324673757614926"/>
    <circle cx="489" cy="224" r="3" fill="#2563EB" opacity="0.10110027796381532"/>
    <circle cx="70" cy="68" r="3" fill="#2563EB" opacity="0.08218563165497515"/>
    <circle cx="182" cy="203" r="3" fill="#2563EB" opacity="0.09814354926898348"/>
    <circle cx="343" cy="279" r="3" fill="#2563EB" opacity="0.09226858446295626"/>
  </g>

  <!-- Border -->
  <rect width="596" height="396" x="2" y="2" rx="14" fill="none" stroke="#3B82F6" stroke-width="1" opacity="0.2"/>

  <!-- Category label at top -->
  <rect x="24" y="24" width="163" height="28" rx="6" fill="#3B82F6" opacity="0.2"/>
  <text x="38" y="43" font-family="'Poppins', 'Segoe UI', Arial, sans-serif" font-size="11" font-weight="700" fill="#3B82F6" letter-spacing="1.5" text-transform="uppercase">AI Prompt Packs</text>

  <!-- Icon -->
  <text x="300" y="150" text-anchor="middle" font-size="48" fill="#3B82F6" opacity="0.4">⚛</text>

  <!-- Product title -->
  <text x="300" y="200" text-anchor="middle" font-family="'Poppins', 'Segoe UI', Arial, sans-serif" font-size="26" font-weight="800" fill="white">
      <tspan x="300" dy="0">Coding Assistant AI Prompt</tspan>
      <tspan x="300" dy="34">Pack</tspan>
  </text>

  <!-- Bottom line accent -->
  <line x1="200" y1="340" x2="400" y2="340" stroke="#3B82F6" stroke-width="2" opacity="0.3"/>

  <!-- Girl Gone AI branding -->
  <text x="300" y="370" text-anchor="middle" font-family="'Poppins', 'Segoe UI', Arial, sans-serif" font-size="12" font-weight="600" fill="white" opacity="0.45" letter-spacing="3">GIRL GONE AI</text>
</svg>