<svg xmlns="http://www.w3.org/2000/svg" viewBox="0 0 600 400" width="600" height="400">
  <defs>
    <linearGradient id="bg_103_salary_negotiation_playbook" x1="0%" y1="0%" x2="100%" y2="100%">
      <stop offset="0%" stop-color="#14B8A6" stop-opacity="0.25"/>
      <stop offset="100%" stop-color="#0D9488" stop-opacity="0.4"/>
    </linearGradient>
    <radialGradient id="glow_103_salary_negotiation_playbook" cx="50%" cy="45%" r="50%">
      <stop offset="0%" stop-color="#14B8A6" stop-opacity="0.12"/>
      <stop offset="100%" stop-color="#0D9488" stop-opacity="0"/>
    </radialGradient>
    <marker id="arrowhead" markerWidth="6" markerHeight="4" refX="6" refY="2" orient="auto">
      <polygon points="0 0, 6 2, 0 4" fill="#14B8A6" opacity="0.3"/>
    </marker>
  </defs>

  <!-- Dark background -->
  <rect width="600" height="400" rx="16" fill="#0A0A14"/>

  <!-- Gradient overlay -->
  <rect width="600" height="400" rx="16" fill="url(#bg_103_salary_negotiation_playbook)"/>

  <!-- Center glow -->
  <ellipse cx="300" cy="180" rx="250" ry="180" fill="url(#glow_103_salary_negotiation_playbook)"/>

  <!-- Decorative elements -->
  <g>
    <path d="M95,283 h37 v-25 h37 v-25 h37 v-25 " fill="none" stroke="#14B8A6" stroke-width="1.5" opacity="0.12928771047669066"/>
    <path d="M173,169 h24 v-28 h24 v-28 h24 v-28 " fill="none" stroke="#14B8A6" stroke-width="1.5" opacity="0.10518036856204485"/>
    <path d="M76,142 h20 v-27 h20 v-27 h20 v-27 " fill="none" stroke="#14B8A6" stroke-width="1.5" opacity="0.08268382138212547"/>
    <path d="M51,294 h26 v-21 h26 v-21 h26 v-21 " fill="none" stroke="#14B8A6" stroke-width="1.5" opacity="0.07243657489856245"/>
    <path d="M420,257 h39 v-24 h39 v-24 h39 v-24 " fill="none" stroke="#14B8A6" stroke-width="1.5" opacity="0.07461136541763681"/>
  </g>

  <!-- Border -->
  <rect width="596" height="396" x="2" y="2" rx="14" fill="none" stroke="#14B8A6" stroke-width="1" opacity="0.2"/>

  <!-- Category label at top -->
  <rect x="24" y="24" width="172" height="28" rx="6" fill="#14B8A6" opacity="0.2"/>
  <text x="38" y="43" font-family="'Poppins', 'Segoe UI', Arial, sans-serif" font-size="11" font-weight="700" fill="#14B8A6" letter-spacing="1.5" text-transform="uppercase">Career Templates</text>

  <!-- Icon -->
  <text x="300" y="167" text-anchor="middle" font-size="48" fill="#14B8A6" opacity="0.4">↑</text>

  <!-- Product title -->
  <text x="300" y="217" text-anchor="middle" font-family="'Poppins', 'Segoe UI', Arial, sans-serif" font-size="26" font-weight="800" fill="white">
      <tspan x="300" dy="0">Salary Negotiation Playbook</tspan>
  </text>

  <!-- Bottom line accent -->
  <line x1="200" y1="340" x2="400" y2="340" stroke="#14B8A6" stroke-width="2" opacity="0.3"/>

  <!-- Girl Gone AI branding -->
  <text x="300" y="370" text-anchor="middle" font-family="'Poppins', 'Segoe UI', Arial, sans-serif" font-size="12" font-weight="600" fill="white" opacity="0.45" letter-spacing="3">GIRL GONE AI</text>
</svg>