<svg xmlns="http://www.w3.org/2000/svg" viewBox="0 0 600 400" width="600" height="400">
  <defs>
    <linearGradient id="bg_111_home_organization_system" x1="0%" y1="0%" x2="100%" y2="100%">
      <stop offset="0%" stop-color="#A855F7" stop-opacity="0.25"/>
      <stop offset="100%" stop-color="#7C3AED" stop-opacity="0.4"/>
    </linearGradient>
    <radialGradient id="glow_111_home_organization_system" cx="50%" cy="45%" r="50%">
      <stop offset="0%" stop-color="#A855F7" stop-opacity="0.12"/>
      <stop offset="100%" stop-color="#7C3AED" stop-opacity="0"/>
    </radialGradient>
    <marker id="arrowhead" markerWidth="6" markerHeight="4" refX="6" refY="2" orient="auto">
      <polygon points="0 0, 6 2, 0 4" fill="#A855F7" opacity="0.3"/>
    </marker>
  </defs>

  <!-- Dark background -->
  <rect width="600" height="400" rx="16" fill="#0A0A14"/>

  <!-- Gradient overlay -->
  <rect width="600" height="400" rx="16" fill="url(#bg_111_home_organization_system)"/>

  <!-- Center glow -->
  <ellipse cx="300" cy="180" rx="250" ry="180" fill="url(#glow_111_home_organization_system)"/>

  <!-- Decorative elements -->
  <g>
    <rect x="346" y="109" width="37" height="44" rx="6" fill="#A855F7" opacity="0.13347158856848235" transform="rotate(-6 364 131)"/>
    <rect x="533" y="140" width="31" height="34" rx="6" fill="#A855F7" opacity="0.09303125106227761" transform="rotate(15 548 157)"/>
    <rect x="243" y="249" width="20" height="40" rx="6" fill="#A855F7" opacity="0.08756587619359743" transform="rotate(-20 253 269)"/>
    <rect x="280" y="306" width="44" height="29" rx="6" fill="#A855F7" opacity="0.12978854604130063" transform="rotate(23 302 320)"/>
    <rect x="351" y="179" width="39" height="24" rx="6" fill="#A855F7" opacity="0.1439599861210693" transform="rotate(-8 370 191)"/>
    <rect x="406" y="99" width="41" height="22" rx="6" fill="#A855F7" opacity="0.14745369820933735" transform="rotate(-11 426 110)"/>
  </g>

  <!-- Border -->
  <rect width="596" height="396" x="2" y="2" rx="14" fill="none" stroke="#A855F7" stroke-width="1" opacity="0.2"/>

  <!-- Category label at top -->
  <rect x="24" y="24" width="172" height="28" rx="6" fill="#A855F7" opacity="0.2"/>
  <text x="38" y="43" font-family="'Poppins', 'Segoe UI', Arial, sans-serif" font-size="11" font-weight="700" fill="#A855F7" letter-spacing="1.5" text-transform="uppercase">Notion Templates</text>

  <!-- Icon -->
  <text x="300" y="167" text-anchor="middle" font-size="48" fill="#A855F7" opacity="0.4">⬛</text>

  <!-- Product title -->
  <text x="300" y="217" text-anchor="middle" font-family="'Poppins', 'Segoe UI', Arial, sans-serif" font-size="26" font-weight="800" fill="white">
      <tspan x="300" dy="0">Home Organization System</tspan>
  </text>

  <!-- Bottom line accent -->
  <line x1="200" y1="340" x2="400" y2="340" stroke="#A855F7" stroke-width="2" opacity="0.3"/>

  <!-- Girl Gone AI branding -->
  <text x="300" y="370" text-anchor="middle" font-family="'Poppins', 'Segoe UI', Arial, sans-serif" font-size="12" font-weight="600" fill="white" opacity="0.45" letter-spacing="3">GIRL GONE AI</text>
</svg>