<svg xmlns="http://www.w3.org/2000/svg" viewBox="0 0 600 400" width="600" height="400">
  <defs>
    <linearGradient id="bg_112_photography_client_crm" x1="0%" y1="0%" x2="100%" y2="100%">
      <stop offset="0%" stop-color="#A855F7" stop-opacity="0.25"/>
      <stop offset="100%" stop-color="#7C3AED" stop-opacity="0.4"/>
    </linearGradient>
    <radialGradient id="glow_112_photography_client_crm" cx="50%" cy="45%" r="50%">
      <stop offset="0%" stop-color="#A855F7" stop-opacity="0.12"/>
      <stop offset="100%" stop-color="#7C3AED" stop-opacity="0"/>
    </radialGradient>
    <marker id="arrowhead" markerWidth="6" markerHeight="4" refX="6" refY="2" orient="auto">
      <polygon points="0 0, 6 2, 0 4" fill="#A855F7" opacity="0.3"/>
    </marker>
  </defs>

  <!-- Dark background -->
  <rect width="600" height="400" rx="16" fill="#0A0A14"/>

  <!-- Gradient overlay -->
  <rect width="600" height="400" rx="16" fill="url(#bg_112_photography_client_crm)"/>

  <!-- Center glow -->
  <ellipse cx="300" cy="180" rx="250" ry="180" fill="url(#glow_112_photography_client_crm)"/>

  <!-- Decorative elements -->
  <g>
    <rect x="493" y="122" width="49" height="41" rx="6" fill="#A855F7" opacity="0.06750002479506428" transform="rotate(-21 517 142)"/>
    <rect x="483" y="71" width="28" height="39" rx="6" fill="#A855F7" opacity="0.08255837712671889" transform="rotate(-12 497 90)"/>
    <rect x="455" y="283" width="31" height="30" rx="6" fill="#A855F7" opacity="0.1174896921437721" transform="rotate(-26 470 298)"/>
    <rect x="43" y="317" width="29" height="29" rx="6" fill="#A855F7" opacity="0.11772298962701146" transform="rotate(-30 57 331)"/>
    <rect x="233" y="214" width="28" height="36" rx="6" fill="#A855F7" opacity="0.12099323456130816" transform="rotate(1 247 232)"/>
    <rect x="505" y="230" width="32" height="20" rx="6" fill="#A855F7" opacity="0.12158932109982214" transform="rotate(-19 521 240)"/>
  </g>

  <!-- Border -->
  <rect width="596" height="396" x="2" y="2" rx="14" fill="none" stroke="#A855F7" stroke-width="1" opacity="0.2"/>

  <!-- Category label at top -->
  <rect x="24" y="24" width="172" height="28" rx="6" fill="#A855F7" opacity="0.2"/>
  <text x="38" y="43" font-family="'Poppins', 'Segoe UI', Arial, sans-serif" font-size="11" font-weight="700" fill="#A855F7" letter-spacing="1.5" text-transform="uppercase">Notion Templates</text>

  <!-- Icon -->
  <text x="300" y="150" text-anchor="middle" font-size="48" fill="#A855F7" opacity="0.4">⬛</text>

  <!-- Product title -->
  <text x="300" y="200" text-anchor="middle" font-family="'Poppins', 'Segoe UI', Arial, sans-serif" font-size="26" font-weight="800" fill="white">
      <tspan x="300" dy="0">Photography Client</tspan>
      <tspan x="300" dy="34">Management</tspan>
  </text>

  <!-- Bottom line accent -->
  <line x1="200" y1="340" x2="400" y2="340" stroke="#A855F7" stroke-width="2" opacity="0.3"/>

  <!-- Girl Gone AI branding -->
  <text x="300" y="370" text-anchor="middle" font-family="'Poppins', 'Segoe UI', Arial, sans-serif" font-size="12" font-weight="600" fill="white" opacity="0.45" letter-spacing="3">GIRL GONE AI</text>
</svg>