<svg xmlns="http://www.w3.org/2000/svg" viewBox="0 0 600 400" width="600" height="400">
  <defs>
    <linearGradient id="bg_118_vacation_rental_manager" x1="0%" y1="0%" x2="100%" y2="100%">
      <stop offset="0%" stop-color="#A855F7" stop-opacity="0.25"/>
      <stop offset="100%" stop-color="#7C3AED" stop-opacity="0.4"/>
    </linearGradient>
    <radialGradient id="glow_118_vacation_rental_manager" cx="50%" cy="45%" r="50%">
      <stop offset="0%" stop-color="#A855F7" stop-opacity="0.12"/>
      <stop offset="100%" stop-color="#7C3AED" stop-opacity="0"/>
    </radialGradient>
    <marker id="arrowhead" markerWidth="6" markerHeight="4" refX="6" refY="2" orient="auto">
      <polygon points="0 0, 6 2, 0 4" fill="#A855F7" opacity="0.3"/>
    </marker>
  </defs>

  <!-- Dark background -->
  <rect width="600" height="400" rx="16" fill="#0A0A14"/>

  <!-- Gradient overlay -->
  <rect width="600" height="400" rx="16" fill="url(#bg_118_vacation_rental_manager)"/>

  <!-- Center glow -->
  <ellipse cx="300" cy="180" rx="250" ry="180" fill="url(#glow_118_vacation_rental_manager)"/>

  <!-- Decorative elements -->
  <g>
    <rect x="503" y="271" width="44" height="40" rx="6" fill="#A855F7" opacity="0.09327455328313766" transform="rotate(-16 525 291)"/>
    <rect x="362" y="235" width="48" height="33" rx="6" fill="#A855F7" opacity="0.09242837281395283" transform="rotate(8 386 251)"/>
    <rect x="133" y="236" width="26" height="40" rx="6" fill="#A855F7" opacity="0.06506684744933608" transform="rotate(12 146 256)"/>
    <rect x="248" y="142" width="29" height="42" rx="6" fill="#A855F7" opacity="0.13379211251103587" transform="rotate(-16 262 163)"/>
    <rect x="164" y="299" width="33" height="49" rx="6" fill="#A855F7" opacity="0.08476617616889648" transform="rotate(-7 180 323)"/>
    <rect x="500" y="264" width="38" height="36" rx="6" fill="#A855F7" opacity="0.13048160877244155" transform="rotate(-9 519 282)"/>
  </g>

  <!-- Border -->
  <rect width="596" height="396" x="2" y="2" rx="14" fill="none" stroke="#A855F7" stroke-width="1" opacity="0.2"/>

  <!-- Category label at top -->
  <rect x="24" y="24" width="172" height="28" rx="6" fill="#A855F7" opacity="0.2"/>
  <text x="38" y="43" font-family="'Poppins', 'Segoe UI', Arial, sans-serif" font-size="11" font-weight="700" fill="#A855F7" letter-spacing="1.5" text-transform="uppercase">Notion Templates</text>

  <!-- Icon -->
  <text x="300" y="150" text-anchor="middle" font-size="48" fill="#A855F7" opacity="0.4">⬛</text>

  <!-- Product title -->
  <text x="300" y="200" text-anchor="middle" font-family="'Poppins', 'Segoe UI', Arial, sans-serif" font-size="26" font-weight="800" fill="white">
      <tspan x="300" dy="0">Notion Vacation Rental</tspan>
      <tspan x="300" dy="34">Manager</tspan>
  </text>

  <!-- Bottom line accent -->
  <line x1="200" y1="340" x2="400" y2="340" stroke="#A855F7" stroke-width="2" opacity="0.3"/>

  <!-- Girl Gone AI branding -->
  <text x="300" y="370" text-anchor="middle" font-family="'Poppins', 'Segoe UI', Arial, sans-serif" font-size="12" font-weight="600" fill="white" opacity="0.45" letter-spacing="3">GIRL GONE AI</text>
</svg>