<svg xmlns="http://www.w3.org/2000/svg" viewBox="0 0 600 400" width="600" height="400">
  <defs>
    <linearGradient id="bg_122_pet_care_vet_tracker" x1="0%" y1="0%" x2="100%" y2="100%">
      <stop offset="0%" stop-color="#A855F7" stop-opacity="0.25"/>
      <stop offset="100%" stop-color="#7C3AED" stop-opacity="0.4"/>
    </linearGradient>
    <radialGradient id="glow_122_pet_care_vet_tracker" cx="50%" cy="45%" r="50%">
      <stop offset="0%" stop-color="#A855F7" stop-opacity="0.12"/>
      <stop offset="100%" stop-color="#7C3AED" stop-opacity="0"/>
    </radialGradient>
    <marker id="arrowhead" markerWidth="6" markerHeight="4" refX="6" refY="2" orient="auto">
      <polygon points="0 0, 6 2, 0 4" fill="#A855F7" opacity="0.3"/>
    </marker>
  </defs>

  <!-- Dark background -->
  <rect width="600" height="400" rx="16" fill="#0A0A14"/>

  <!-- Gradient overlay -->
  <rect width="600" height="400" rx="16" fill="url(#bg_122_pet_care_vet_tracker)"/>

  <!-- Center glow -->
  <ellipse cx="300" cy="180" rx="250" ry="180" fill="url(#glow_122_pet_care_vet_tracker)"/>

  <!-- Decorative elements -->
  <g>
    <rect x="520" y="308" width="46" height="42" rx="6" fill="#A855F7" opacity="0.07883373287204494" transform="rotate(8 543 329)"/>
    <rect x="368" y="130" width="41" height="21" rx="6" fill="#A855F7" opacity="0.09765654212990625" transform="rotate(28 388 140)"/>
    <rect x="352" y="241" width="23" height="50" rx="6" fill="#A855F7" opacity="0.12129124617701365" transform="rotate(-3 363 266)"/>
    <rect x="276" y="318" width="46" height="20" rx="6" fill="#A855F7" opacity="0.13340213289872105" transform="rotate(-7 299 328)"/>
    <rect x="278" y="68" width="23" height="33" rx="6" fill="#A855F7" opacity="0.09368473142446326" transform="rotate(6 289 84)"/>
    <rect x="287" y="96" width="46" height="28" rx="6" fill="#A855F7" opacity="0.1004340797142384" transform="rotate(-25 310 110)"/>
  </g>

  <!-- Border -->
  <rect width="596" height="396" x="2" y="2" rx="14" fill="none" stroke="#A855F7" stroke-width="1" opacity="0.2"/>

  <!-- Category label at top -->
  <rect x="24" y="24" width="172" height="28" rx="6" fill="#A855F7" opacity="0.2"/>
  <text x="38" y="43" font-family="'Poppins', 'Segoe UI', Arial, sans-serif" font-size="11" font-weight="700" fill="#A855F7" letter-spacing="1.5" text-transform="uppercase">Notion Templates</text>

  <!-- Icon -->
  <text x="300" y="167" text-anchor="middle" font-size="48" fill="#A855F7" opacity="0.4">⬛</text>

  <!-- Product title -->
  <text x="300" y="217" text-anchor="middle" font-family="'Poppins', 'Segoe UI', Arial, sans-serif" font-size="26" font-weight="800" fill="white">
      <tspan x="300" dy="0">Pet Care &amp; Vet Visit Tracker</tspan>
  </text>

  <!-- Bottom line accent -->
  <line x1="200" y1="340" x2="400" y2="340" stroke="#A855F7" stroke-width="2" opacity="0.3"/>

  <!-- Girl Gone AI branding -->
  <text x="300" y="370" text-anchor="middle" font-family="'Poppins', 'Segoe UI', Arial, sans-serif" font-size="12" font-weight="600" fill="white" opacity="0.45" letter-spacing="3">GIRL GONE AI</text>
</svg>