<svg xmlns="http://www.w3.org/2000/svg" viewBox="0 0 600 400" width="600" height="400">
  <defs>
    <linearGradient id="bg_138_professional_speaker_toolkit" x1="0%" y1="0%" x2="100%" y2="100%">
      <stop offset="0%" stop-color="#6366F1" stop-opacity="0.25"/>
      <stop offset="100%" stop-color="#4F46E5" stop-opacity="0.4"/>
    </linearGradient>
    <radialGradient id="glow_138_professional_speaker_toolkit" cx="50%" cy="45%" r="50%">
      <stop offset="0%" stop-color="#6366F1" stop-opacity="0.12"/>
      <stop offset="100%" stop-color="#4F46E5" stop-opacity="0"/>
    </radialGradient>
    <marker id="arrowhead" markerWidth="6" markerHeight="4" refX="6" refY="2" orient="auto">
      <polygon points="0 0, 6 2, 0 4" fill="#6366F1" opacity="0.3"/>
    </marker>
  </defs>

  <!-- Dark background -->
  <rect width="600" height="400" rx="16" fill="#0A0A14"/>

  <!-- Gradient overlay -->
  <rect width="600" height="400" rx="16" fill="url(#bg_138_professional_speaker_toolkit)"/>

  <!-- Center glow -->
  <ellipse cx="300" cy="180" rx="250" ry="180" fill="url(#glow_138_professional_speaker_toolkit)"/>

  <!-- Decorative elements -->
  <g>
    <rect x="62" y="319" width="148" height="6" rx="2" fill="#6366F1" opacity="0.10592859956099045"/>
    <rect x="86" y="132" width="166" height="8" rx="2" fill="#6366F1" opacity="0.1253561735924088"/>
    <rect x="56" y="313" width="96" height="4" rx="2" fill="#6366F1" opacity="0.12358825483918305"/>
    <rect x="63" y="95" width="174" height="8" rx="2" fill="#6366F1" opacity="0.08634845351034678"/>
    <rect x="76" y="180" width="137" height="8" rx="2" fill="#6366F1" opacity="0.13034625783439013"/>
  </g>

  <!-- Border -->
  <rect width="596" height="396" x="2" y="2" rx="14" fill="none" stroke="#6366F1" stroke-width="1" opacity="0.2"/>

  <!-- Category label at top -->
  <rect x="24" y="24" width="190" height="28" rx="6" fill="#6366F1" opacity="0.2"/>
  <text x="38" y="43" font-family="'Poppins', 'Segoe UI', Arial, sans-serif" font-size="11" font-weight="700" fill="#6366F1" letter-spacing="1.5" text-transform="uppercase">Business Templates</text>

  <!-- Icon -->
  <text x="300" y="167" text-anchor="middle" font-size="48" fill="#6366F1" opacity="0.4">△</text>

  <!-- Product title -->
  <text x="300" y="217" text-anchor="middle" font-family="'Poppins', 'Segoe UI', Arial, sans-serif" font-size="26" font-weight="800" fill="white">
      <tspan x="300" dy="0">Professional Speaker Toolkit</tspan>
  </text>

  <!-- Bottom line accent -->
  <line x1="200" y1="340" x2="400" y2="340" stroke="#6366F1" stroke-width="2" opacity="0.3"/>

  <!-- Girl Gone AI branding -->
  <text x="300" y="370" text-anchor="middle" font-family="'Poppins', 'Segoe UI', Arial, sans-serif" font-size="12" font-weight="600" fill="white" opacity="0.45" letter-spacing="3">GIRL GONE AI</text>
</svg>