<svg xmlns="http://www.w3.org/2000/svg" viewBox="0 0 600 400" width="600" height="400">
  <defs>
    <linearGradient id="bg_14_real_estate_agent_planner" x1="0%" y1="0%" x2="100%" y2="100%">
      <stop offset="0%" stop-color="#A855F7" stop-opacity="0.25"/>
      <stop offset="100%" stop-color="#7C3AED" stop-opacity="0.4"/>
    </linearGradient>
    <radialGradient id="glow_14_real_estate_agent_planner" cx="50%" cy="45%" r="50%">
      <stop offset="0%" stop-color="#A855F7" stop-opacity="0.12"/>
      <stop offset="100%" stop-color="#7C3AED" stop-opacity="0"/>
    </radialGradient>
    <marker id="arrowhead" markerWidth="6" markerHeight="4" refX="6" refY="2" orient="auto">
      <polygon points="0 0, 6 2, 0 4" fill="#A855F7" opacity="0.3"/>
    </marker>
  </defs>

  <!-- Dark background -->
  <rect width="600" height="400" rx="16" fill="#0A0A14"/>

  <!-- Gradient overlay -->
  <rect width="600" height="400" rx="16" fill="url(#bg_14_real_estate_agent_planner)"/>

  <!-- Center glow -->
  <ellipse cx="300" cy="180" rx="250" ry="180" fill="url(#glow_14_real_estate_agent_planner)"/>

  <!-- Decorative elements -->
  <g>
    <rect x="229" y="227" width="39" height="25" rx="6" fill="#A855F7" opacity="0.11261933343575221" transform="rotate(-2 248 239)"/>
    <rect x="397" y="250" width="50" height="43" rx="6" fill="#A855F7" opacity="0.0837231113046238" transform="rotate(-20 422 271)"/>
    <rect x="279" y="162" width="28" height="29" rx="6" fill="#A855F7" opacity="0.11990205976624592" transform="rotate(-7 293 176)"/>
    <rect x="310" y="307" width="39" height="41" rx="6" fill="#A855F7" opacity="0.07168448644441523" transform="rotate(12 329 327)"/>
    <rect x="108" y="165" width="49" height="26" rx="6" fill="#A855F7" opacity="0.12129973891424169" transform="rotate(-10 132 178)"/>
    <rect x="86" y="188" width="43" height="26" rx="6" fill="#A855F7" opacity="0.13550015649216351" transform="rotate(-30 107 201)"/>
  </g>

  <!-- Border -->
  <rect width="596" height="396" x="2" y="2" rx="14" fill="none" stroke="#A855F7" stroke-width="1" opacity="0.2"/>

  <!-- Category label at top -->
  <rect x="24" y="24" width="172" height="28" rx="6" fill="#A855F7" opacity="0.2"/>
  <text x="38" y="43" font-family="'Poppins', 'Segoe UI', Arial, sans-serif" font-size="11" font-weight="700" fill="#A855F7" letter-spacing="1.5" text-transform="uppercase">Notion Templates</text>

  <!-- Icon -->
  <text x="300" y="150" text-anchor="middle" font-size="48" fill="#A855F7" opacity="0.4">⬛</text>

  <!-- Product title -->
  <text x="300" y="200" text-anchor="middle" font-family="'Poppins', 'Segoe UI', Arial, sans-serif" font-size="26" font-weight="800" fill="white">
      <tspan x="300" dy="0">Real Estate Agent Command</tspan>
      <tspan x="300" dy="34">Center</tspan>
  </text>

  <!-- Bottom line accent -->
  <line x1="200" y1="340" x2="400" y2="340" stroke="#A855F7" stroke-width="2" opacity="0.3"/>

  <!-- Girl Gone AI branding -->
  <text x="300" y="370" text-anchor="middle" font-family="'Poppins', 'Segoe UI', Arial, sans-serif" font-size="12" font-weight="600" fill="white" opacity="0.45" letter-spacing="3">GIRL GONE AI</text>
</svg>