<svg xmlns="http://www.w3.org/2000/svg" viewBox="0 0 600 400" width="600" height="400">
  <defs>
    <linearGradient id="bg_143_skincare_routine_builder" x1="0%" y1="0%" x2="100%" y2="100%">
      <stop offset="0%" stop-color="#EC4899" stop-opacity="0.25"/>
      <stop offset="100%" stop-color="#DB2777" stop-opacity="0.4"/>
    </linearGradient>
    <radialGradient id="glow_143_skincare_routine_builder" cx="50%" cy="45%" r="50%">
      <stop offset="0%" stop-color="#EC4899" stop-opacity="0.12"/>
      <stop offset="100%" stop-color="#DB2777" stop-opacity="0"/>
    </radialGradient>
    <marker id="arrowhead" markerWidth="6" markerHeight="4" refX="6" refY="2" orient="auto">
      <polygon points="0 0, 6 2, 0 4" fill="#EC4899" opacity="0.3"/>
    </marker>
  </defs>

  <!-- Dark background -->
  <rect width="600" height="400" rx="16" fill="#0A0A14"/>

  <!-- Gradient overlay -->
  <rect width="600" height="400" rx="16" fill="url(#bg_143_skincare_routine_builder)"/>

  <!-- Center glow -->
  <ellipse cx="300" cy="180" rx="250" ry="180" fill="url(#glow_143_skincare_routine_builder)"/>

  <!-- Decorative elements -->
  <g>
    <ellipse cx="170" cy="102" rx="16" ry="10" fill="none" stroke="#EC4899" stroke-width="1" opacity="0.09333183849226645" transform="rotate(0 170 102)"/>
    <ellipse cx="170" cy="102" rx="16" ry="10" fill="none" stroke="#EC4899" stroke-width="1" opacity="0.09333183849226645" transform="rotate(60 170 102)"/>
    <ellipse cx="170" cy="102" rx="16" ry="10" fill="none" stroke="#EC4899" stroke-width="1" opacity="0.09333183849226645" transform="rotate(120 170 102)"/>
    <ellipse cx="170" cy="102" rx="16" ry="10" fill="none" stroke="#EC4899" stroke-width="1" opacity="0.09333183849226645" transform="rotate(180 170 102)"/>
    <ellipse cx="170" cy="102" rx="16" ry="10" fill="none" stroke="#EC4899" stroke-width="1" opacity="0.09333183849226645" transform="rotate(240 170 102)"/>
    <ellipse cx="170" cy="102" rx="16" ry="10" fill="none" stroke="#EC4899" stroke-width="1" opacity="0.09333183849226645" transform="rotate(300 170 102)"/>
    <ellipse cx="368" cy="159" rx="18" ry="8" fill="none" stroke="#EC4899" stroke-width="1" opacity="0.061458981272284344" transform="rotate(0 368 159)"/>
    <ellipse cx="368" cy="159" rx="18" ry="8" fill="none" stroke="#EC4899" stroke-width="1" opacity="0.061458981272284344" transform="rotate(60 368 159)"/>
    <ellipse cx="368" cy="159" rx="18" ry="8" fill="none" stroke="#EC4899" stroke-width="1" opacity="0.061458981272284344" transform="rotate(120 368 159)"/>
    <ellipse cx="368" cy="159" rx="18" ry="8" fill="none" stroke="#EC4899" stroke-width="1" opacity="0.061458981272284344" transform="rotate(180 368 159)"/>
    <ellipse cx="368" cy="159" rx="18" ry="8" fill="none" stroke="#EC4899" stroke-width="1" opacity="0.061458981272284344" transform="rotate(240 368 159)"/>
    <ellipse cx="368" cy="159" rx="18" ry="8" fill="none" stroke="#EC4899" stroke-width="1" opacity="0.061458981272284344" transform="rotate(300 368 159)"/>
    <ellipse cx="446" cy="339" rx="17" ry="10" fill="none" stroke="#EC4899" stroke-width="1" opacity="0.05620235546491199" transform="rotate(0 446 339)"/>
    <ellipse cx="446" cy="339" rx="17" ry="10" fill="none" stroke="#EC4899" stroke-width="1" opacity="0.05620235546491199" transform="rotate(60 446 339)"/>
    <ellipse cx="446" cy="339" rx="17" ry="10" fill="none" stroke="#EC4899" stroke-width="1" opacity="0.05620235546491199" transform="rotate(120 446 339)"/>
    <ellipse cx="446" cy="339" rx="17" ry="10" fill="none" stroke="#EC4899" stroke-width="1" opacity="0.05620235546491199" transform="rotate(180 446 339)"/>
    <ellipse cx="446" cy="339" rx="17" ry="10" fill="none" stroke="#EC4899" stroke-width="1" opacity="0.05620235546491199" transform="rotate(240 446 339)"/>
    <ellipse cx="446" cy="339" rx="17" ry="10" fill="none" stroke="#EC4899" stroke-width="1" opacity="0.05620235546491199" transform="rotate(300 446 339)"/>
    <ellipse cx="525" cy="83" rx="18" ry="6" fill="none" stroke="#EC4899" stroke-width="1" opacity="0.11411909731323204" transform="rotate(0 525 83)"/>
    <ellipse cx="525" cy="83" rx="18" ry="6" fill="none" stroke="#EC4899" stroke-width="1" opacity="0.11411909731323204" transform="rotate(60 525 83)"/>
    <ellipse cx="525" cy="83" rx="18" ry="6" fill="none" stroke="#EC4899" stroke-width="1" opacity="0.11411909731323204" transform="rotate(120 525 83)"/>
    <ellipse cx="525" cy="83" rx="18" ry="6" fill="none" stroke="#EC4899" stroke-width="1" opacity="0.11411909731323204" transform="rotate(180 525 83)"/>
    <ellipse cx="525" cy="83" rx="18" ry="6" fill="none" stroke="#EC4899" stroke-width="1" opacity="0.11411909731323204" transform="rotate(240 525 83)"/>
    <ellipse cx="525" cy="83" rx="18" ry="6" fill="none" stroke="#EC4899" stroke-width="1" opacity="0.11411909731323204" transform="rotate(300 525 83)"/>
    <ellipse cx="287" cy="262" rx="19" ry="13" fill="none" stroke="#EC4899" stroke-width="1" opacity="0.07242490721275562" transform="rotate(0 287 262)"/>
    <ellipse cx="287" cy="262" rx="19" ry="13" fill="none" stroke="#EC4899" stroke-width="1" opacity="0.07242490721275562" transform="rotate(60 287 262)"/>
    <ellipse cx="287" cy="262" rx="19" ry="13" fill="none" stroke="#EC4899" stroke-width="1" opacity="0.07242490721275562" transform="rotate(120 287 262)"/>
    <ellipse cx="287" cy="262" rx="19" ry="13" fill="none" stroke="#EC4899" stroke-width="1" opacity="0.07242490721275562" transform="rotate(180 287 262)"/>
    <ellipse cx="287" cy="262" rx="19" ry="13" fill="none" stroke="#EC4899" stroke-width="1" opacity="0.07242490721275562" transform="rotate(240 287 262)"/>
    <ellipse cx="287" cy="262" rx="19" ry="13" fill="none" stroke="#EC4899" stroke-width="1" opacity="0.07242490721275562" transform="rotate(300 287 262)"/>
  </g>

  <!-- Border -->
  <rect width="596" height="396" x="2" y="2" rx="14" fill="none" stroke="#EC4899" stroke-width="1" opacity="0.2"/>

  <!-- Category label at top -->
  <rect x="24" y="24" width="262" height="28" rx="6" fill="#EC4899" opacity="0.2"/>
  <text x="38" y="43" font-family="'Poppins', 'Segoe UI', Arial, sans-serif" font-size="11" font-weight="700" fill="#EC4899" letter-spacing="1.5" text-transform="uppercase">Beauty &amp; Wellness Business</text>

  <!-- Icon -->
  <text x="300" y="150" text-anchor="middle" font-size="48" fill="#EC4899" opacity="0.4">❤</text>

  <!-- Product title -->
  <text x="300" y="200" text-anchor="middle" font-family="'Poppins', 'Segoe UI', Arial, sans-serif" font-size="26" font-weight="800" fill="white">
      <tspan x="300" dy="0">Skincare Routine Builder &amp;</tspan>
      <tspan x="300" dy="34">Product Tracker</tspan>
  </text>

  <!-- Bottom line accent -->
  <line x1="200" y1="340" x2="400" y2="340" stroke="#EC4899" stroke-width="2" opacity="0.3"/>

  <!-- Girl Gone AI branding -->
  <text x="300" y="370" text-anchor="middle" font-family="'Poppins', 'Segoe UI', Arial, sans-serif" font-size="12" font-weight="600" fill="white" opacity="0.45" letter-spacing="3">GIRL GONE AI</text>
</svg>