<svg xmlns="http://www.w3.org/2000/svg" viewBox="0 0 600 400" width="600" height="400">
  <defs>
    <linearGradient id="bg_144_beauty_business_booking_crm" x1="0%" y1="0%" x2="100%" y2="100%">
      <stop offset="0%" stop-color="#EC4899" stop-opacity="0.25"/>
      <stop offset="100%" stop-color="#DB2777" stop-opacity="0.4"/>
    </linearGradient>
    <radialGradient id="glow_144_beauty_business_booking_crm" cx="50%" cy="45%" r="50%">
      <stop offset="0%" stop-color="#EC4899" stop-opacity="0.12"/>
      <stop offset="100%" stop-color="#DB2777" stop-opacity="0"/>
    </radialGradient>
    <marker id="arrowhead" markerWidth="6" markerHeight="4" refX="6" refY="2" orient="auto">
      <polygon points="0 0, 6 2, 0 4" fill="#EC4899" opacity="0.3"/>
    </marker>
  </defs>

  <!-- Dark background -->
  <rect width="600" height="400" rx="16" fill="#0A0A14"/>

  <!-- Gradient overlay -->
  <rect width="600" height="400" rx="16" fill="url(#bg_144_beauty_business_booking_crm)"/>

  <!-- Center glow -->
  <ellipse cx="300" cy="180" rx="250" ry="180" fill="url(#glow_144_beauty_business_booking_crm)"/>

  <!-- Decorative elements -->
  <g>
    <ellipse cx="421" cy="90" rx="18" ry="13" fill="none" stroke="#EC4899" stroke-width="1" opacity="0.06057763679802196" transform="rotate(0 421 90)"/>
    <ellipse cx="421" cy="90" rx="18" ry="13" fill="none" stroke="#EC4899" stroke-width="1" opacity="0.06057763679802196" transform="rotate(60 421 90)"/>
    <ellipse cx="421" cy="90" rx="18" ry="13" fill="none" stroke="#EC4899" stroke-width="1" opacity="0.06057763679802196" transform="rotate(120 421 90)"/>
    <ellipse cx="421" cy="90" rx="18" ry="13" fill="none" stroke="#EC4899" stroke-width="1" opacity="0.06057763679802196" transform="rotate(180 421 90)"/>
    <ellipse cx="421" cy="90" rx="18" ry="13" fill="none" stroke="#EC4899" stroke-width="1" opacity="0.06057763679802196" transform="rotate(240 421 90)"/>
    <ellipse cx="421" cy="90" rx="18" ry="13" fill="none" stroke="#EC4899" stroke-width="1" opacity="0.06057763679802196" transform="rotate(300 421 90)"/>
    <ellipse cx="192" cy="318" rx="18" ry="11" fill="none" stroke="#EC4899" stroke-width="1" opacity="0.06047293725414375" transform="rotate(0 192 318)"/>
    <ellipse cx="192" cy="318" rx="18" ry="11" fill="none" stroke="#EC4899" stroke-width="1" opacity="0.06047293725414375" transform="rotate(60 192 318)"/>
    <ellipse cx="192" cy="318" rx="18" ry="11" fill="none" stroke="#EC4899" stroke-width="1" opacity="0.06047293725414375" transform="rotate(120 192 318)"/>
    <ellipse cx="192" cy="318" rx="18" ry="11" fill="none" stroke="#EC4899" stroke-width="1" opacity="0.06047293725414375" transform="rotate(180 192 318)"/>
    <ellipse cx="192" cy="318" rx="18" ry="11" fill="none" stroke="#EC4899" stroke-width="1" opacity="0.06047293725414375" transform="rotate(240 192 318)"/>
    <ellipse cx="192" cy="318" rx="18" ry="11" fill="none" stroke="#EC4899" stroke-width="1" opacity="0.06047293725414375" transform="rotate(300 192 318)"/>
    <ellipse cx="99" cy="145" rx="17" ry="10" fill="none" stroke="#EC4899" stroke-width="1" opacity="0.10722986915807187" transform="rotate(0 99 145)"/>
    <ellipse cx="99" cy="145" rx="17" ry="10" fill="none" stroke="#EC4899" stroke-width="1" opacity="0.10722986915807187" transform="rotate(60 99 145)"/>
    <ellipse cx="99" cy="145" rx="17" ry="10" fill="none" stroke="#EC4899" stroke-width="1" opacity="0.10722986915807187" transform="rotate(120 99 145)"/>
    <ellipse cx="99" cy="145" rx="17" ry="10" fill="none" stroke="#EC4899" stroke-width="1" opacity="0.10722986915807187" transform="rotate(180 99 145)"/>
    <ellipse cx="99" cy="145" rx="17" ry="10" fill="none" stroke="#EC4899" stroke-width="1" opacity="0.10722986915807187" transform="rotate(240 99 145)"/>
    <ellipse cx="99" cy="145" rx="17" ry="10" fill="none" stroke="#EC4899" stroke-width="1" opacity="0.10722986915807187" transform="rotate(300 99 145)"/>
    <ellipse cx="438" cy="223" rx="18" ry="10" fill="none" stroke="#EC4899" stroke-width="1" opacity="0.09749708200672336" transform="rotate(0 438 223)"/>
    <ellipse cx="438" cy="223" rx="18" ry="10" fill="none" stroke="#EC4899" stroke-width="1" opacity="0.09749708200672336" transform="rotate(60 438 223)"/>
    <ellipse cx="438" cy="223" rx="18" ry="10" fill="none" stroke="#EC4899" stroke-width="1" opacity="0.09749708200672336" transform="rotate(120 438 223)"/>
    <ellipse cx="438" cy="223" rx="18" ry="10" fill="none" stroke="#EC4899" stroke-width="1" opacity="0.09749708200672336" transform="rotate(180 438 223)"/>
    <ellipse cx="438" cy="223" rx="18" ry="10" fill="none" stroke="#EC4899" stroke-width="1" opacity="0.09749708200672336" transform="rotate(240 438 223)"/>
    <ellipse cx="438" cy="223" rx="18" ry="10" fill="none" stroke="#EC4899" stroke-width="1" opacity="0.09749708200672336" transform="rotate(300 438 223)"/>
    <ellipse cx="431" cy="152" rx="13" ry="13" fill="none" stroke="#EC4899" stroke-width="1" opacity="0.06923732632665365" transform="rotate(0 431 152)"/>
    <ellipse cx="431" cy="152" rx="13" ry="13" fill="none" stroke="#EC4899" stroke-width="1" opacity="0.06923732632665365" transform="rotate(60 431 152)"/>
    <ellipse cx="431" cy="152" rx="13" ry="13" fill="none" stroke="#EC4899" stroke-width="1" opacity="0.06923732632665365" transform="rotate(120 431 152)"/>
    <ellipse cx="431" cy="152" rx="13" ry="13" fill="none" stroke="#EC4899" stroke-width="1" opacity="0.06923732632665365" transform="rotate(180 431 152)"/>
    <ellipse cx="431" cy="152" rx="13" ry="13" fill="none" stroke="#EC4899" stroke-width="1" opacity="0.06923732632665365" transform="rotate(240 431 152)"/>
    <ellipse cx="431" cy="152" rx="13" ry="13" fill="none" stroke="#EC4899" stroke-width="1" opacity="0.06923732632665365" transform="rotate(300 431 152)"/>
  </g>

  <!-- Border -->
  <rect width="596" height="396" x="2" y="2" rx="14" fill="none" stroke="#EC4899" stroke-width="1" opacity="0.2"/>

  <!-- Category label at top -->
  <rect x="24" y="24" width="262" height="28" rx="6" fill="#EC4899" opacity="0.2"/>
  <text x="38" y="43" font-family="'Poppins', 'Segoe UI', Arial, sans-serif" font-size="11" font-weight="700" fill="#EC4899" letter-spacing="1.5" text-transform="uppercase">Beauty &amp; Wellness Business</text>

  <!-- Icon -->
  <text x="300" y="150" text-anchor="middle" font-size="48" fill="#EC4899" opacity="0.4">❤</text>

  <!-- Product title -->
  <text x="300" y="200" text-anchor="middle" font-family="'Poppins', 'Segoe UI', Arial, sans-serif" font-size="26" font-weight="800" fill="white">
      <tspan x="300" dy="0">Beauty Business Booking &amp;</tspan>
      <tspan x="300" dy="34">Revenue Dashboard</tspan>
  </text>

  <!-- Bottom line accent -->
  <line x1="200" y1="340" x2="400" y2="340" stroke="#EC4899" stroke-width="2" opacity="0.3"/>

  <!-- Girl Gone AI branding -->
  <text x="300" y="370" text-anchor="middle" font-family="'Poppins', 'Segoe UI', Arial, sans-serif" font-size="12" font-weight="600" fill="white" opacity="0.45" letter-spacing="3">GIRL GONE AI</text>
</svg>