<svg xmlns="http://www.w3.org/2000/svg" viewBox="0 0 600 400" width="600" height="400">
  <defs>
    <linearGradient id="bg_150_beauty_side_hustle_starter" x1="0%" y1="0%" x2="100%" y2="100%">
      <stop offset="0%" stop-color="#EC4899" stop-opacity="0.25"/>
      <stop offset="100%" stop-color="#DB2777" stop-opacity="0.4"/>
    </linearGradient>
    <radialGradient id="glow_150_beauty_side_hustle_starter" cx="50%" cy="45%" r="50%">
      <stop offset="0%" stop-color="#EC4899" stop-opacity="0.12"/>
      <stop offset="100%" stop-color="#DB2777" stop-opacity="0"/>
    </radialGradient>
    <marker id="arrowhead" markerWidth="6" markerHeight="4" refX="6" refY="2" orient="auto">
      <polygon points="0 0, 6 2, 0 4" fill="#EC4899" opacity="0.3"/>
    </marker>
  </defs>

  <!-- Dark background -->
  <rect width="600" height="400" rx="16" fill="#0A0A14"/>

  <!-- Gradient overlay -->
  <rect width="600" height="400" rx="16" fill="url(#bg_150_beauty_side_hustle_starter)"/>

  <!-- Center glow -->
  <ellipse cx="300" cy="180" rx="250" ry="180" fill="url(#glow_150_beauty_side_hustle_starter)"/>

  <!-- Decorative elements -->
  <g>
    <ellipse cx="228" cy="276" rx="17" ry="10" fill="none" stroke="#EC4899" stroke-width="1" opacity="0.06521158230830393" transform="rotate(0 228 276)"/>
    <ellipse cx="228" cy="276" rx="17" ry="10" fill="none" stroke="#EC4899" stroke-width="1" opacity="0.06521158230830393" transform="rotate(60 228 276)"/>
    <ellipse cx="228" cy="276" rx="17" ry="10" fill="none" stroke="#EC4899" stroke-width="1" opacity="0.06521158230830393" transform="rotate(120 228 276)"/>
    <ellipse cx="228" cy="276" rx="17" ry="10" fill="none" stroke="#EC4899" stroke-width="1" opacity="0.06521158230830393" transform="rotate(180 228 276)"/>
    <ellipse cx="228" cy="276" rx="17" ry="10" fill="none" stroke="#EC4899" stroke-width="1" opacity="0.06521158230830393" transform="rotate(240 228 276)"/>
    <ellipse cx="228" cy="276" rx="17" ry="10" fill="none" stroke="#EC4899" stroke-width="1" opacity="0.06521158230830393" transform="rotate(300 228 276)"/>
    <ellipse cx="529" cy="319" rx="24" ry="6" fill="none" stroke="#EC4899" stroke-width="1" opacity="0.053759535640391876" transform="rotate(0 529 319)"/>
    <ellipse cx="529" cy="319" rx="24" ry="6" fill="none" stroke="#EC4899" stroke-width="1" opacity="0.053759535640391876" transform="rotate(60 529 319)"/>
    <ellipse cx="529" cy="319" rx="24" ry="6" fill="none" stroke="#EC4899" stroke-width="1" opacity="0.053759535640391876" transform="rotate(120 529 319)"/>
    <ellipse cx="529" cy="319" rx="24" ry="6" fill="none" stroke="#EC4899" stroke-width="1" opacity="0.053759535640391876" transform="rotate(180 529 319)"/>
    <ellipse cx="529" cy="319" rx="24" ry="6" fill="none" stroke="#EC4899" stroke-width="1" opacity="0.053759535640391876" transform="rotate(240 529 319)"/>
    <ellipse cx="529" cy="319" rx="24" ry="6" fill="none" stroke="#EC4899" stroke-width="1" opacity="0.053759535640391876" transform="rotate(300 529 319)"/>
    <ellipse cx="68" cy="134" rx="14" ry="12" fill="none" stroke="#EC4899" stroke-width="1" opacity="0.0895972785326883" transform="rotate(0 68 134)"/>
    <ellipse cx="68" cy="134" rx="14" ry="12" fill="none" stroke="#EC4899" stroke-width="1" opacity="0.0895972785326883" transform="rotate(60 68 134)"/>
    <ellipse cx="68" cy="134" rx="14" ry="12" fill="none" stroke="#EC4899" stroke-width="1" opacity="0.0895972785326883" transform="rotate(120 68 134)"/>
    <ellipse cx="68" cy="134" rx="14" ry="12" fill="none" stroke="#EC4899" stroke-width="1" opacity="0.0895972785326883" transform="rotate(180 68 134)"/>
    <ellipse cx="68" cy="134" rx="14" ry="12" fill="none" stroke="#EC4899" stroke-width="1" opacity="0.0895972785326883" transform="rotate(240 68 134)"/>
    <ellipse cx="68" cy="134" rx="14" ry="12" fill="none" stroke="#EC4899" stroke-width="1" opacity="0.0895972785326883" transform="rotate(300 68 134)"/>
    <ellipse cx="289" cy="255" rx="17" ry="7" fill="none" stroke="#EC4899" stroke-width="1" opacity="0.11623847692062139" transform="rotate(0 289 255)"/>
    <ellipse cx="289" cy="255" rx="17" ry="7" fill="none" stroke="#EC4899" stroke-width="1" opacity="0.11623847692062139" transform="rotate(60 289 255)"/>
    <ellipse cx="289" cy="255" rx="17" ry="7" fill="none" stroke="#EC4899" stroke-width="1" opacity="0.11623847692062139" transform="rotate(120 289 255)"/>
    <ellipse cx="289" cy="255" rx="17" ry="7" fill="none" stroke="#EC4899" stroke-width="1" opacity="0.11623847692062139" transform="rotate(180 289 255)"/>
    <ellipse cx="289" cy="255" rx="17" ry="7" fill="none" stroke="#EC4899" stroke-width="1" opacity="0.11623847692062139" transform="rotate(240 289 255)"/>
    <ellipse cx="289" cy="255" rx="17" ry="7" fill="none" stroke="#EC4899" stroke-width="1" opacity="0.11623847692062139" transform="rotate(300 289 255)"/>
    <ellipse cx="75" cy="185" rx="17" ry="9" fill="none" stroke="#EC4899" stroke-width="1" opacity="0.11903691498978959" transform="rotate(0 75 185)"/>
    <ellipse cx="75" cy="185" rx="17" ry="9" fill="none" stroke="#EC4899" stroke-width="1" opacity="0.11903691498978959" transform="rotate(60 75 185)"/>
    <ellipse cx="75" cy="185" rx="17" ry="9" fill="none" stroke="#EC4899" stroke-width="1" opacity="0.11903691498978959" transform="rotate(120 75 185)"/>
    <ellipse cx="75" cy="185" rx="17" ry="9" fill="none" stroke="#EC4899" stroke-width="1" opacity="0.11903691498978959" transform="rotate(180 75 185)"/>
    <ellipse cx="75" cy="185" rx="17" ry="9" fill="none" stroke="#EC4899" stroke-width="1" opacity="0.11903691498978959" transform="rotate(240 75 185)"/>
    <ellipse cx="75" cy="185" rx="17" ry="9" fill="none" stroke="#EC4899" stroke-width="1" opacity="0.11903691498978959" transform="rotate(300 75 185)"/>
  </g>

  <!-- Border -->
  <rect width="596" height="396" x="2" y="2" rx="14" fill="none" stroke="#EC4899" stroke-width="1" opacity="0.2"/>

  <!-- Category label at top -->
  <rect x="24" y="24" width="262" height="28" rx="6" fill="#EC4899" opacity="0.2"/>
  <text x="38" y="43" font-family="'Poppins', 'Segoe UI', Arial, sans-serif" font-size="11" font-weight="700" fill="#EC4899" letter-spacing="1.5" text-transform="uppercase">Beauty &amp; Wellness Business</text>

  <!-- Icon -->
  <text x="300" y="150" text-anchor="middle" font-size="48" fill="#EC4899" opacity="0.4">❤</text>

  <!-- Product title -->
  <text x="300" y="200" text-anchor="middle" font-family="'Poppins', 'Segoe UI', Arial, sans-serif" font-size="26" font-weight="800" fill="white">
      <tspan x="300" dy="0">Beauty Side Hustle Starter</tspan>
      <tspan x="300" dy="34">Kit</tspan>
  </text>

  <!-- Bottom line accent -->
  <line x1="200" y1="340" x2="400" y2="340" stroke="#EC4899" stroke-width="2" opacity="0.3"/>

  <!-- Girl Gone AI branding -->
  <text x="300" y="370" text-anchor="middle" font-family="'Poppins', 'Segoe UI', Arial, sans-serif" font-size="12" font-weight="600" fill="white" opacity="0.45" letter-spacing="3">GIRL GONE AI</text>
</svg>