<svg xmlns="http://www.w3.org/2000/svg" viewBox="0 0 600 400" width="600" height="400">
  <defs>
    <linearGradient id="bg_152_med_spa_business_launch" x1="0%" y1="0%" x2="100%" y2="100%">
      <stop offset="0%" stop-color="#EC4899" stop-opacity="0.25"/>
      <stop offset="100%" stop-color="#DB2777" stop-opacity="0.4"/>
    </linearGradient>
    <radialGradient id="glow_152_med_spa_business_launch" cx="50%" cy="45%" r="50%">
      <stop offset="0%" stop-color="#EC4899" stop-opacity="0.12"/>
      <stop offset="100%" stop-color="#DB2777" stop-opacity="0"/>
    </radialGradient>
    <marker id="arrowhead" markerWidth="6" markerHeight="4" refX="6" refY="2" orient="auto">
      <polygon points="0 0, 6 2, 0 4" fill="#EC4899" opacity="0.3"/>
    </marker>
  </defs>

  <!-- Dark background -->
  <rect width="600" height="400" rx="16" fill="#0A0A14"/>

  <!-- Gradient overlay -->
  <rect width="600" height="400" rx="16" fill="url(#bg_152_med_spa_business_launch)"/>

  <!-- Center glow -->
  <ellipse cx="300" cy="180" rx="250" ry="180" fill="url(#glow_152_med_spa_business_launch)"/>

  <!-- Decorative elements -->
  <g>
    <ellipse cx="334" cy="181" rx="21" ry="7" fill="none" stroke="#EC4899" stroke-width="1" opacity="0.09289130382848267" transform="rotate(0 334 181)"/>
    <ellipse cx="334" cy="181" rx="21" ry="7" fill="none" stroke="#EC4899" stroke-width="1" opacity="0.09289130382848267" transform="rotate(60 334 181)"/>
    <ellipse cx="334" cy="181" rx="21" ry="7" fill="none" stroke="#EC4899" stroke-width="1" opacity="0.09289130382848267" transform="rotate(120 334 181)"/>
    <ellipse cx="334" cy="181" rx="21" ry="7" fill="none" stroke="#EC4899" stroke-width="1" opacity="0.09289130382848267" transform="rotate(180 334 181)"/>
    <ellipse cx="334" cy="181" rx="21" ry="7" fill="none" stroke="#EC4899" stroke-width="1" opacity="0.09289130382848267" transform="rotate(240 334 181)"/>
    <ellipse cx="334" cy="181" rx="21" ry="7" fill="none" stroke="#EC4899" stroke-width="1" opacity="0.09289130382848267" transform="rotate(300 334 181)"/>
    <ellipse cx="512" cy="238" rx="23" ry="6" fill="none" stroke="#EC4899" stroke-width="1" opacity="0.10802966517479883" transform="rotate(0 512 238)"/>
    <ellipse cx="512" cy="238" rx="23" ry="6" fill="none" stroke="#EC4899" stroke-width="1" opacity="0.10802966517479883" transform="rotate(60 512 238)"/>
    <ellipse cx="512" cy="238" rx="23" ry="6" fill="none" stroke="#EC4899" stroke-width="1" opacity="0.10802966517479883" transform="rotate(120 512 238)"/>
    <ellipse cx="512" cy="238" rx="23" ry="6" fill="none" stroke="#EC4899" stroke-width="1" opacity="0.10802966517479883" transform="rotate(180 512 238)"/>
    <ellipse cx="512" cy="238" rx="23" ry="6" fill="none" stroke="#EC4899" stroke-width="1" opacity="0.10802966517479883" transform="rotate(240 512 238)"/>
    <ellipse cx="512" cy="238" rx="23" ry="6" fill="none" stroke="#EC4899" stroke-width="1" opacity="0.10802966517479883" transform="rotate(300 512 238)"/>
    <ellipse cx="114" cy="296" rx="24" ry="9" fill="none" stroke="#EC4899" stroke-width="1" opacity="0.06309903945307893" transform="rotate(0 114 296)"/>
    <ellipse cx="114" cy="296" rx="24" ry="9" fill="none" stroke="#EC4899" stroke-width="1" opacity="0.06309903945307893" transform="rotate(60 114 296)"/>
    <ellipse cx="114" cy="296" rx="24" ry="9" fill="none" stroke="#EC4899" stroke-width="1" opacity="0.06309903945307893" transform="rotate(120 114 296)"/>
    <ellipse cx="114" cy="296" rx="24" ry="9" fill="none" stroke="#EC4899" stroke-width="1" opacity="0.06309903945307893" transform="rotate(180 114 296)"/>
    <ellipse cx="114" cy="296" rx="24" ry="9" fill="none" stroke="#EC4899" stroke-width="1" opacity="0.06309903945307893" transform="rotate(240 114 296)"/>
    <ellipse cx="114" cy="296" rx="24" ry="9" fill="none" stroke="#EC4899" stroke-width="1" opacity="0.06309903945307893" transform="rotate(300 114 296)"/>
    <ellipse cx="341" cy="127" rx="21" ry="10" fill="none" stroke="#EC4899" stroke-width="1" opacity="0.062328060017007775" transform="rotate(0 341 127)"/>
    <ellipse cx="341" cy="127" rx="21" ry="10" fill="none" stroke="#EC4899" stroke-width="1" opacity="0.062328060017007775" transform="rotate(60 341 127)"/>
    <ellipse cx="341" cy="127" rx="21" ry="10" fill="none" stroke="#EC4899" stroke-width="1" opacity="0.062328060017007775" transform="rotate(120 341 127)"/>
    <ellipse cx="341" cy="127" rx="21" ry="10" fill="none" stroke="#EC4899" stroke-width="1" opacity="0.062328060017007775" transform="rotate(180 341 127)"/>
    <ellipse cx="341" cy="127" rx="21" ry="10" fill="none" stroke="#EC4899" stroke-width="1" opacity="0.062328060017007775" transform="rotate(240 341 127)"/>
    <ellipse cx="341" cy="127" rx="21" ry="10" fill="none" stroke="#EC4899" stroke-width="1" opacity="0.062328060017007775" transform="rotate(300 341 127)"/>
    <ellipse cx="171" cy="75" rx="22" ry="13" fill="none" stroke="#EC4899" stroke-width="1" opacity="0.1065142179144033" transform="rotate(0 171 75)"/>
    <ellipse cx="171" cy="75" rx="22" ry="13" fill="none" stroke="#EC4899" stroke-width="1" opacity="0.1065142179144033" transform="rotate(60 171 75)"/>
    <ellipse cx="171" cy="75" rx="22" ry="13" fill="none" stroke="#EC4899" stroke-width="1" opacity="0.1065142179144033" transform="rotate(120 171 75)"/>
    <ellipse cx="171" cy="75" rx="22" ry="13" fill="none" stroke="#EC4899" stroke-width="1" opacity="0.1065142179144033" transform="rotate(180 171 75)"/>
    <ellipse cx="171" cy="75" rx="22" ry="13" fill="none" stroke="#EC4899" stroke-width="1" opacity="0.1065142179144033" transform="rotate(240 171 75)"/>
    <ellipse cx="171" cy="75" rx="22" ry="13" fill="none" stroke="#EC4899" stroke-width="1" opacity="0.1065142179144033" transform="rotate(300 171 75)"/>
  </g>

  <!-- Border -->
  <rect width="596" height="396" x="2" y="2" rx="14" fill="none" stroke="#EC4899" stroke-width="1" opacity="0.2"/>

  <!-- Category label at top -->
  <rect x="24" y="24" width="262" height="28" rx="6" fill="#EC4899" opacity="0.2"/>
  <text x="38" y="43" font-family="'Poppins', 'Segoe UI', Arial, sans-serif" font-size="11" font-weight="700" fill="#EC4899" letter-spacing="1.5" text-transform="uppercase">Beauty &amp; Wellness Business</text>

  <!-- Icon -->
  <text x="300" y="150" text-anchor="middle" font-size="48" fill="#EC4899" opacity="0.4">❤</text>

  <!-- Product title -->
  <text x="300" y="200" text-anchor="middle" font-family="'Poppins', 'Segoe UI', Arial, sans-serif" font-size="26" font-weight="800" fill="white">
      <tspan x="300" dy="0">Med Spa &amp; Aesthetics</tspan>
      <tspan x="300" dy="34">Business Launch Blueprint</tspan>
  </text>

  <!-- Bottom line accent -->
  <line x1="200" y1="340" x2="400" y2="340" stroke="#EC4899" stroke-width="2" opacity="0.3"/>

  <!-- Girl Gone AI branding -->
  <text x="300" y="370" text-anchor="middle" font-family="'Poppins', 'Segoe UI', Arial, sans-serif" font-size="12" font-weight="600" fill="white" opacity="0.45" letter-spacing="3">GIRL GONE AI</text>
</svg>