<svg xmlns="http://www.w3.org/2000/svg" viewBox="0 0 600 400" width="600" height="400">
  <defs>
    <linearGradient id="bg_155_skincare_brand_builder" x1="0%" y1="0%" x2="100%" y2="100%">
      <stop offset="0%" stop-color="#EC4899" stop-opacity="0.25"/>
      <stop offset="100%" stop-color="#DB2777" stop-opacity="0.4"/>
    </linearGradient>
    <radialGradient id="glow_155_skincare_brand_builder" cx="50%" cy="45%" r="50%">
      <stop offset="0%" stop-color="#EC4899" stop-opacity="0.12"/>
      <stop offset="100%" stop-color="#DB2777" stop-opacity="0"/>
    </radialGradient>
    <marker id="arrowhead" markerWidth="6" markerHeight="4" refX="6" refY="2" orient="auto">
      <polygon points="0 0, 6 2, 0 4" fill="#EC4899" opacity="0.3"/>
    </marker>
  </defs>

  <!-- Dark background -->
  <rect width="600" height="400" rx="16" fill="#0A0A14"/>

  <!-- Gradient overlay -->
  <rect width="600" height="400" rx="16" fill="url(#bg_155_skincare_brand_builder)"/>

  <!-- Center glow -->
  <ellipse cx="300" cy="180" rx="250" ry="180" fill="url(#glow_155_skincare_brand_builder)"/>

  <!-- Decorative elements -->
  <g>
    <ellipse cx="356" cy="137" rx="13" ry="11" fill="none" stroke="#EC4899" stroke-width="1" opacity="0.09026998911285662" transform="rotate(0 356 137)"/>
    <ellipse cx="356" cy="137" rx="13" ry="11" fill="none" stroke="#EC4899" stroke-width="1" opacity="0.09026998911285662" transform="rotate(60 356 137)"/>
    <ellipse cx="356" cy="137" rx="13" ry="11" fill="none" stroke="#EC4899" stroke-width="1" opacity="0.09026998911285662" transform="rotate(120 356 137)"/>
    <ellipse cx="356" cy="137" rx="13" ry="11" fill="none" stroke="#EC4899" stroke-width="1" opacity="0.09026998911285662" transform="rotate(180 356 137)"/>
    <ellipse cx="356" cy="137" rx="13" ry="11" fill="none" stroke="#EC4899" stroke-width="1" opacity="0.09026998911285662" transform="rotate(240 356 137)"/>
    <ellipse cx="356" cy="137" rx="13" ry="11" fill="none" stroke="#EC4899" stroke-width="1" opacity="0.09026998911285662" transform="rotate(300 356 137)"/>
    <ellipse cx="431" cy="250" rx="17" ry="9" fill="none" stroke="#EC4899" stroke-width="1" opacity="0.08394675625849071" transform="rotate(0 431 250)"/>
    <ellipse cx="431" cy="250" rx="17" ry="9" fill="none" stroke="#EC4899" stroke-width="1" opacity="0.08394675625849071" transform="rotate(60 431 250)"/>
    <ellipse cx="431" cy="250" rx="17" ry="9" fill="none" stroke="#EC4899" stroke-width="1" opacity="0.08394675625849071" transform="rotate(120 431 250)"/>
    <ellipse cx="431" cy="250" rx="17" ry="9" fill="none" stroke="#EC4899" stroke-width="1" opacity="0.08394675625849071" transform="rotate(180 431 250)"/>
    <ellipse cx="431" cy="250" rx="17" ry="9" fill="none" stroke="#EC4899" stroke-width="1" opacity="0.08394675625849071" transform="rotate(240 431 250)"/>
    <ellipse cx="431" cy="250" rx="17" ry="9" fill="none" stroke="#EC4899" stroke-width="1" opacity="0.08394675625849071" transform="rotate(300 431 250)"/>
    <ellipse cx="524" cy="205" rx="13" ry="9" fill="none" stroke="#EC4899" stroke-width="1" opacity="0.06117040616320043" transform="rotate(0 524 205)"/>
    <ellipse cx="524" cy="205" rx="13" ry="9" fill="none" stroke="#EC4899" stroke-width="1" opacity="0.06117040616320043" transform="rotate(60 524 205)"/>
    <ellipse cx="524" cy="205" rx="13" ry="9" fill="none" stroke="#EC4899" stroke-width="1" opacity="0.06117040616320043" transform="rotate(120 524 205)"/>
    <ellipse cx="524" cy="205" rx="13" ry="9" fill="none" stroke="#EC4899" stroke-width="1" opacity="0.06117040616320043" transform="rotate(180 524 205)"/>
    <ellipse cx="524" cy="205" rx="13" ry="9" fill="none" stroke="#EC4899" stroke-width="1" opacity="0.06117040616320043" transform="rotate(240 524 205)"/>
    <ellipse cx="524" cy="205" rx="13" ry="9" fill="none" stroke="#EC4899" stroke-width="1" opacity="0.06117040616320043" transform="rotate(300 524 205)"/>
    <ellipse cx="120" cy="180" rx="20" ry="8" fill="none" stroke="#EC4899" stroke-width="1" opacity="0.10532587134226855" transform="rotate(0 120 180)"/>
    <ellipse cx="120" cy="180" rx="20" ry="8" fill="none" stroke="#EC4899" stroke-width="1" opacity="0.10532587134226855" transform="rotate(60 120 180)"/>
    <ellipse cx="120" cy="180" rx="20" ry="8" fill="none" stroke="#EC4899" stroke-width="1" opacity="0.10532587134226855" transform="rotate(120 120 180)"/>
    <ellipse cx="120" cy="180" rx="20" ry="8" fill="none" stroke="#EC4899" stroke-width="1" opacity="0.10532587134226855" transform="rotate(180 120 180)"/>
    <ellipse cx="120" cy="180" rx="20" ry="8" fill="none" stroke="#EC4899" stroke-width="1" opacity="0.10532587134226855" transform="rotate(240 120 180)"/>
    <ellipse cx="120" cy="180" rx="20" ry="8" fill="none" stroke="#EC4899" stroke-width="1" opacity="0.10532587134226855" transform="rotate(300 120 180)"/>
    <ellipse cx="517" cy="88" rx="23" ry="11" fill="none" stroke="#EC4899" stroke-width="1" opacity="0.09405841807730829" transform="rotate(0 517 88)"/>
    <ellipse cx="517" cy="88" rx="23" ry="11" fill="none" stroke="#EC4899" stroke-width="1" opacity="0.09405841807730829" transform="rotate(60 517 88)"/>
    <ellipse cx="517" cy="88" rx="23" ry="11" fill="none" stroke="#EC4899" stroke-width="1" opacity="0.09405841807730829" transform="rotate(120 517 88)"/>
    <ellipse cx="517" cy="88" rx="23" ry="11" fill="none" stroke="#EC4899" stroke-width="1" opacity="0.09405841807730829" transform="rotate(180 517 88)"/>
    <ellipse cx="517" cy="88" rx="23" ry="11" fill="none" stroke="#EC4899" stroke-width="1" opacity="0.09405841807730829" transform="rotate(240 517 88)"/>
    <ellipse cx="517" cy="88" rx="23" ry="11" fill="none" stroke="#EC4899" stroke-width="1" opacity="0.09405841807730829" transform="rotate(300 517 88)"/>
  </g>

  <!-- Border -->
  <rect width="596" height="396" x="2" y="2" rx="14" fill="none" stroke="#EC4899" stroke-width="1" opacity="0.2"/>

  <!-- Category label at top -->
  <rect x="24" y="24" width="262" height="28" rx="6" fill="#EC4899" opacity="0.2"/>
  <text x="38" y="43" font-family="'Poppins', 'Segoe UI', Arial, sans-serif" font-size="11" font-weight="700" fill="#EC4899" letter-spacing="1.5" text-transform="uppercase">Beauty &amp; Wellness Business</text>

  <!-- Icon -->
  <text x="300" y="150" text-anchor="middle" font-size="48" fill="#EC4899" opacity="0.4">❤</text>

  <!-- Product title -->
  <text x="300" y="200" text-anchor="middle" font-family="'Poppins', 'Segoe UI', Arial, sans-serif" font-size="26" font-weight="800" fill="white">
      <tspan x="300" dy="0">Skincare Product Line</tspan>
      <tspan x="300" dy="34">Development Kit</tspan>
  </text>

  <!-- Bottom line accent -->
  <line x1="200" y1="340" x2="400" y2="340" stroke="#EC4899" stroke-width="2" opacity="0.3"/>

  <!-- Girl Gone AI branding -->
  <text x="300" y="370" text-anchor="middle" font-family="'Poppins', 'Segoe UI', Arial, sans-serif" font-size="12" font-weight="600" fill="white" opacity="0.45" letter-spacing="3">GIRL GONE AI</text>
</svg>