<svg xmlns="http://www.w3.org/2000/svg" viewBox="0 0 600 400" width="600" height="400">
  <defs>
    <linearGradient id="bg_157_esthetician_to_ceo_growth" x1="0%" y1="0%" x2="100%" y2="100%">
      <stop offset="0%" stop-color="#EC4899" stop-opacity="0.25"/>
      <stop offset="100%" stop-color="#DB2777" stop-opacity="0.4"/>
    </linearGradient>
    <radialGradient id="glow_157_esthetician_to_ceo_growth" cx="50%" cy="45%" r="50%">
      <stop offset="0%" stop-color="#EC4899" stop-opacity="0.12"/>
      <stop offset="100%" stop-color="#DB2777" stop-opacity="0"/>
    </radialGradient>
    <marker id="arrowhead" markerWidth="6" markerHeight="4" refX="6" refY="2" orient="auto">
      <polygon points="0 0, 6 2, 0 4" fill="#EC4899" opacity="0.3"/>
    </marker>
  </defs>

  <!-- Dark background -->
  <rect width="600" height="400" rx="16" fill="#0A0A14"/>

  <!-- Gradient overlay -->
  <rect width="600" height="400" rx="16" fill="url(#bg_157_esthetician_to_ceo_growth)"/>

  <!-- Center glow -->
  <ellipse cx="300" cy="180" rx="250" ry="180" fill="url(#glow_157_esthetician_to_ceo_growth)"/>

  <!-- Decorative elements -->
  <g>
    <ellipse cx="262" cy="280" rx="22" ry="13" fill="none" stroke="#EC4899" stroke-width="1" opacity="0.059648545934687845" transform="rotate(0 262 280)"/>
    <ellipse cx="262" cy="280" rx="22" ry="13" fill="none" stroke="#EC4899" stroke-width="1" opacity="0.059648545934687845" transform="rotate(60 262 280)"/>
    <ellipse cx="262" cy="280" rx="22" ry="13" fill="none" stroke="#EC4899" stroke-width="1" opacity="0.059648545934687845" transform="rotate(120 262 280)"/>
    <ellipse cx="262" cy="280" rx="22" ry="13" fill="none" stroke="#EC4899" stroke-width="1" opacity="0.059648545934687845" transform="rotate(180 262 280)"/>
    <ellipse cx="262" cy="280" rx="22" ry="13" fill="none" stroke="#EC4899" stroke-width="1" opacity="0.059648545934687845" transform="rotate(240 262 280)"/>
    <ellipse cx="262" cy="280" rx="22" ry="13" fill="none" stroke="#EC4899" stroke-width="1" opacity="0.059648545934687845" transform="rotate(300 262 280)"/>
    <ellipse cx="247" cy="331" rx="21" ry="6" fill="none" stroke="#EC4899" stroke-width="1" opacity="0.10079463471599538" transform="rotate(0 247 331)"/>
    <ellipse cx="247" cy="331" rx="21" ry="6" fill="none" stroke="#EC4899" stroke-width="1" opacity="0.10079463471599538" transform="rotate(60 247 331)"/>
    <ellipse cx="247" cy="331" rx="21" ry="6" fill="none" stroke="#EC4899" stroke-width="1" opacity="0.10079463471599538" transform="rotate(120 247 331)"/>
    <ellipse cx="247" cy="331" rx="21" ry="6" fill="none" stroke="#EC4899" stroke-width="1" opacity="0.10079463471599538" transform="rotate(180 247 331)"/>
    <ellipse cx="247" cy="331" rx="21" ry="6" fill="none" stroke="#EC4899" stroke-width="1" opacity="0.10079463471599538" transform="rotate(240 247 331)"/>
    <ellipse cx="247" cy="331" rx="21" ry="6" fill="none" stroke="#EC4899" stroke-width="1" opacity="0.10079463471599538" transform="rotate(300 247 331)"/>
    <ellipse cx="418" cy="312" rx="23" ry="13" fill="none" stroke="#EC4899" stroke-width="1" opacity="0.08494718499381318" transform="rotate(0 418 312)"/>
    <ellipse cx="418" cy="312" rx="23" ry="13" fill="none" stroke="#EC4899" stroke-width="1" opacity="0.08494718499381318" transform="rotate(60 418 312)"/>
    <ellipse cx="418" cy="312" rx="23" ry="13" fill="none" stroke="#EC4899" stroke-width="1" opacity="0.08494718499381318" transform="rotate(120 418 312)"/>
    <ellipse cx="418" cy="312" rx="23" ry="13" fill="none" stroke="#EC4899" stroke-width="1" opacity="0.08494718499381318" transform="rotate(180 418 312)"/>
    <ellipse cx="418" cy="312" rx="23" ry="13" fill="none" stroke="#EC4899" stroke-width="1" opacity="0.08494718499381318" transform="rotate(240 418 312)"/>
    <ellipse cx="418" cy="312" rx="23" ry="13" fill="none" stroke="#EC4899" stroke-width="1" opacity="0.08494718499381318" transform="rotate(300 418 312)"/>
    <ellipse cx="492" cy="134" rx="12" ry="9" fill="none" stroke="#EC4899" stroke-width="1" opacity="0.0894086570985275" transform="rotate(0 492 134)"/>
    <ellipse cx="492" cy="134" rx="12" ry="9" fill="none" stroke="#EC4899" stroke-width="1" opacity="0.0894086570985275" transform="rotate(60 492 134)"/>
    <ellipse cx="492" cy="134" rx="12" ry="9" fill="none" stroke="#EC4899" stroke-width="1" opacity="0.0894086570985275" transform="rotate(120 492 134)"/>
    <ellipse cx="492" cy="134" rx="12" ry="9" fill="none" stroke="#EC4899" stroke-width="1" opacity="0.0894086570985275" transform="rotate(180 492 134)"/>
    <ellipse cx="492" cy="134" rx="12" ry="9" fill="none" stroke="#EC4899" stroke-width="1" opacity="0.0894086570985275" transform="rotate(240 492 134)"/>
    <ellipse cx="492" cy="134" rx="12" ry="9" fill="none" stroke="#EC4899" stroke-width="1" opacity="0.0894086570985275" transform="rotate(300 492 134)"/>
    <ellipse cx="207" cy="328" rx="14" ry="11" fill="none" stroke="#EC4899" stroke-width="1" opacity="0.06590894560425052" transform="rotate(0 207 328)"/>
    <ellipse cx="207" cy="328" rx="14" ry="11" fill="none" stroke="#EC4899" stroke-width="1" opacity="0.06590894560425052" transform="rotate(60 207 328)"/>
    <ellipse cx="207" cy="328" rx="14" ry="11" fill="none" stroke="#EC4899" stroke-width="1" opacity="0.06590894560425052" transform="rotate(120 207 328)"/>
    <ellipse cx="207" cy="328" rx="14" ry="11" fill="none" stroke="#EC4899" stroke-width="1" opacity="0.06590894560425052" transform="rotate(180 207 328)"/>
    <ellipse cx="207" cy="328" rx="14" ry="11" fill="none" stroke="#EC4899" stroke-width="1" opacity="0.06590894560425052" transform="rotate(240 207 328)"/>
    <ellipse cx="207" cy="328" rx="14" ry="11" fill="none" stroke="#EC4899" stroke-width="1" opacity="0.06590894560425052" transform="rotate(300 207 328)"/>
  </g>

  <!-- Border -->
  <rect width="596" height="396" x="2" y="2" rx="14" fill="none" stroke="#EC4899" stroke-width="1" opacity="0.2"/>

  <!-- Category label at top -->
  <rect x="24" y="24" width="262" height="28" rx="6" fill="#EC4899" opacity="0.2"/>
  <text x="38" y="43" font-family="'Poppins', 'Segoe UI', Arial, sans-serif" font-size="11" font-weight="700" fill="#EC4899" letter-spacing="1.5" text-transform="uppercase">Beauty &amp; Wellness Business</text>

  <!-- Icon -->
  <text x="300" y="150" text-anchor="middle" font-size="48" fill="#EC4899" opacity="0.4">❤</text>

  <!-- Product title -->
  <text x="300" y="200" text-anchor="middle" font-family="'Poppins', 'Segoe UI', Arial, sans-serif" font-size="26" font-weight="800" fill="white">
      <tspan x="300" dy="0">Esthetician to CEO: Business</tspan>
      <tspan x="300" dy="34">Growth Roadmap</tspan>
  </text>

  <!-- Bottom line accent -->
  <line x1="200" y1="340" x2="400" y2="340" stroke="#EC4899" stroke-width="2" opacity="0.3"/>

  <!-- Girl Gone AI branding -->
  <text x="300" y="370" text-anchor="middle" font-family="'Poppins', 'Segoe UI', Arial, sans-serif" font-size="12" font-weight="600" fill="white" opacity="0.45" letter-spacing="3">GIRL GONE AI</text>
</svg>