<svg xmlns="http://www.w3.org/2000/svg" viewBox="0 0 600 400" width="600" height="400">
  <defs>
    <linearGradient id="bg_158_beauty_tiktok_content_prompts" x1="0%" y1="0%" x2="100%" y2="100%">
      <stop offset="0%" stop-color="#8B5CF6" stop-opacity="0.25"/>
      <stop offset="100%" stop-color="#6D28D9" stop-opacity="0.4"/>
    </linearGradient>
    <radialGradient id="glow_158_beauty_tiktok_content_prompts" cx="50%" cy="45%" r="50%">
      <stop offset="0%" stop-color="#8B5CF6" stop-opacity="0.12"/>
      <stop offset="100%" stop-color="#6D28D9" stop-opacity="0"/>
    </radialGradient>
    <marker id="arrowhead" markerWidth="6" markerHeight="4" refX="6" refY="2" orient="auto">
      <polygon points="0 0, 6 2, 0 4" fill="#8B5CF6" opacity="0.3"/>
    </marker>
  </defs>

  <!-- Dark background -->
  <rect width="600" height="400" rx="16" fill="#0A0A14"/>

  <!-- Gradient overlay -->
  <rect width="600" height="400" rx="16" fill="url(#bg_158_beauty_tiktok_content_prompts)"/>

  <!-- Center glow -->
  <ellipse cx="300" cy="180" rx="250" ry="180" fill="url(#glow_158_beauty_tiktok_content_prompts)"/>

  <!-- Decorative elements -->
  <g>
    <rect x="158" y="267" width="13" height="13" fill="none" stroke="#8B5CF6" stroke-width="1.5" opacity="0.12053164140108531" transform="rotate(79 164 273)"/>
    <rect x="292" y="261" width="15" height="15" fill="none" stroke="#8B5CF6" stroke-width="1.5" opacity="0.08136001825657888" transform="rotate(90 299 268)"/>
    <rect x="266" y="216" width="19" height="19" fill="none" stroke="#8B5CF6" stroke-width="1.5" opacity="0.0927520745464378" transform="rotate(79 275 225)"/>
    <rect x="121" y="234" width="24" height="24" fill="none" stroke="#8B5CF6" stroke-width="1.5" opacity="0.07418157795245443" transform="rotate(48 133 246)"/>
    <rect x="404" y="80" width="11" height="11" fill="none" stroke="#8B5CF6" stroke-width="1.5" opacity="0.09988554915728241" transform="rotate(85 409 85)"/>
    <rect x="292" y="235" width="16" height="16" fill="none" stroke="#8B5CF6" stroke-width="1.5" opacity="0.06222194191658192" transform="rotate(73 300 243)"/>
  </g>

  <!-- Border -->
  <rect width="596" height="396" x="2" y="2" rx="14" fill="none" stroke="#8B5CF6" stroke-width="1" opacity="0.2"/>

  <!-- Category label at top -->
  <rect x="24" y="24" width="172" height="28" rx="6" fill="#8B5CF6" opacity="0.2"/>
  <text x="38" y="43" font-family="'Poppins', 'Segoe UI', Arial, sans-serif" font-size="11" font-weight="700" fill="#8B5CF6" letter-spacing="1.5" text-transform="uppercase">Digital Products</text>

  <!-- Icon -->
  <text x="300" y="150" text-anchor="middle" font-size="48" fill="#8B5CF6" opacity="0.4">◆</text>

  <!-- Product title -->
  <text x="300" y="200" text-anchor="middle" font-family="'Poppins', 'Segoe UI', Arial, sans-serif" font-size="26" font-weight="800" fill="white">
      <tspan x="300" dy="0">Beauty TikTok &amp; Reels</tspan>
      <tspan x="300" dy="34">Content Idea Generator</tspan>
  </text>

  <!-- Bottom line accent -->
  <line x1="200" y1="340" x2="400" y2="340" stroke="#8B5CF6" stroke-width="2" opacity="0.3"/>

  <!-- Girl Gone AI branding -->
  <text x="300" y="370" text-anchor="middle" font-family="'Poppins', 'Segoe UI', Arial, sans-serif" font-size="12" font-weight="600" fill="white" opacity="0.45" letter-spacing="3">GIRL GONE AI</text>
</svg>