<svg xmlns="http://www.w3.org/2000/svg" viewBox="0 0 600 400" width="600" height="400">
  <defs>
    <linearGradient id="bg_22_wedding_planning_dashboard" x1="0%" y1="0%" x2="100%" y2="100%">
      <stop offset="0%" stop-color="#A855F7" stop-opacity="0.25"/>
      <stop offset="100%" stop-color="#7C3AED" stop-opacity="0.4"/>
    </linearGradient>
    <radialGradient id="glow_22_wedding_planning_dashboard" cx="50%" cy="45%" r="50%">
      <stop offset="0%" stop-color="#A855F7" stop-opacity="0.12"/>
      <stop offset="100%" stop-color="#7C3AED" stop-opacity="0"/>
    </radialGradient>
    <marker id="arrowhead" markerWidth="6" markerHeight="4" refX="6" refY="2" orient="auto">
      <polygon points="0 0, 6 2, 0 4" fill="#A855F7" opacity="0.3"/>
    </marker>
  </defs>

  <!-- Dark background -->
  <rect width="600" height="400" rx="16" fill="#0A0A14"/>

  <!-- Gradient overlay -->
  <rect width="600" height="400" rx="16" fill="url(#bg_22_wedding_planning_dashboard)"/>

  <!-- Center glow -->
  <ellipse cx="300" cy="180" rx="250" ry="180" fill="url(#glow_22_wedding_planning_dashboard)"/>

  <!-- Decorative elements -->
  <g>
    <rect x="295" y="145" width="28" height="41" rx="6" fill="#A855F7" opacity="0.14031010685069092" transform="rotate(-7 309 165)"/>
    <rect x="272" y="305" width="33" height="25" rx="6" fill="#A855F7" opacity="0.12771668742610512" transform="rotate(-7 288 317)"/>
    <rect x="100" y="148" width="20" height="28" rx="6" fill="#A855F7" opacity="0.10958740541689521" transform="rotate(-12 110 162)"/>
    <rect x="81" y="205" width="40" height="22" rx="6" fill="#A855F7" opacity="0.12262195819118435" transform="rotate(14 101 216)"/>
    <rect x="233" y="157" width="35" height="31" rx="6" fill="#A855F7" opacity="0.12460262024700819" transform="rotate(-18 250 172)"/>
    <rect x="311" y="275" width="22" height="35" rx="6" fill="#A855F7" opacity="0.08853534186988654" transform="rotate(3 322 292)"/>
  </g>

  <!-- Border -->
  <rect width="596" height="396" x="2" y="2" rx="14" fill="none" stroke="#A855F7" stroke-width="1" opacity="0.2"/>

  <!-- Category label at top -->
  <rect x="24" y="24" width="172" height="28" rx="6" fill="#A855F7" opacity="0.2"/>
  <text x="38" y="43" font-family="'Poppins', 'Segoe UI', Arial, sans-serif" font-size="11" font-weight="700" fill="#A855F7" letter-spacing="1.5" text-transform="uppercase">Notion Templates</text>

  <!-- Icon -->
  <text x="300" y="167" text-anchor="middle" font-size="48" fill="#A855F7" opacity="0.4">⬛</text>

  <!-- Product title -->
  <text x="300" y="217" text-anchor="middle" font-family="'Poppins', 'Segoe UI', Arial, sans-serif" font-size="26" font-weight="800" fill="white">
      <tspan x="300" dy="0">Wedding Planning Dashboard</tspan>
  </text>

  <!-- Bottom line accent -->
  <line x1="200" y1="340" x2="400" y2="340" stroke="#A855F7" stroke-width="2" opacity="0.3"/>

  <!-- Girl Gone AI branding -->
  <text x="300" y="370" text-anchor="middle" font-family="'Poppins', 'Segoe UI', Arial, sans-serif" font-size="12" font-weight="600" fill="white" opacity="0.45" letter-spacing="3">GIRL GONE AI</text>
</svg>