<svg xmlns="http://www.w3.org/2000/svg" viewBox="0 0 600 400" width="600" height="400">
  <defs>
    <linearGradient id="bg_32_youtube_channel_growth_notion" x1="0%" y1="0%" x2="100%" y2="100%">
      <stop offset="0%" stop-color="#A855F7" stop-opacity="0.25"/>
      <stop offset="100%" stop-color="#7C3AED" stop-opacity="0.4"/>
    </linearGradient>
    <radialGradient id="glow_32_youtube_channel_growth_notion" cx="50%" cy="45%" r="50%">
      <stop offset="0%" stop-color="#A855F7" stop-opacity="0.12"/>
      <stop offset="100%" stop-color="#7C3AED" stop-opacity="0"/>
    </radialGradient>
    <marker id="arrowhead" markerWidth="6" markerHeight="4" refX="6" refY="2" orient="auto">
      <polygon points="0 0, 6 2, 0 4" fill="#A855F7" opacity="0.3"/>
    </marker>
  </defs>

  <!-- Dark background -->
  <rect width="600" height="400" rx="16" fill="#0A0A14"/>

  <!-- Gradient overlay -->
  <rect width="600" height="400" rx="16" fill="url(#bg_32_youtube_channel_growth_notion)"/>

  <!-- Center glow -->
  <ellipse cx="300" cy="180" rx="250" ry="180" fill="url(#glow_32_youtube_channel_growth_notion)"/>

  <!-- Decorative elements -->
  <g>
    <rect x="427" y="154" width="26" height="33" rx="6" fill="#A855F7" opacity="0.09905260804391552" transform="rotate(1 440 170)"/>
    <rect x="305" y="256" width="23" height="44" rx="6" fill="#A855F7" opacity="0.051914967581870114" transform="rotate(-25 316 278)"/>
    <rect x="384" y="228" width="43" height="36" rx="6" fill="#A855F7" opacity="0.08752614389496201" transform="rotate(-14 405 246)"/>
    <rect x="285" y="194" width="34" height="47" rx="6" fill="#A855F7" opacity="0.07392731065572158" transform="rotate(7 302 217)"/>
    <rect x="315" y="228" width="21" height="37" rx="6" fill="#A855F7" opacity="0.1438424200443726" transform="rotate(-27 325 246)"/>
    <rect x="128" y="307" width="42" height="48" rx="6" fill="#A855F7" opacity="0.0716597202367609" transform="rotate(8 149 331)"/>
  </g>

  <!-- Border -->
  <rect width="596" height="396" x="2" y="2" rx="14" fill="none" stroke="#A855F7" stroke-width="1" opacity="0.2"/>

  <!-- Category label at top -->
  <rect x="24" y="24" width="172" height="28" rx="6" fill="#A855F7" opacity="0.2"/>
  <text x="38" y="43" font-family="'Poppins', 'Segoe UI', Arial, sans-serif" font-size="11" font-weight="700" fill="#A855F7" letter-spacing="1.5" text-transform="uppercase">Notion Templates</text>

  <!-- Icon -->
  <text x="300" y="150" text-anchor="middle" font-size="48" fill="#A855F7" opacity="0.4">⬛</text>

  <!-- Product title -->
  <text x="300" y="200" text-anchor="middle" font-family="'Poppins', 'Segoe UI', Arial, sans-serif" font-size="26" font-weight="800" fill="white">
      <tspan x="300" dy="0">YouTube Channel Growth</tspan>
      <tspan x="300" dy="34">System</tspan>
  </text>

  <!-- Bottom line accent -->
  <line x1="200" y1="340" x2="400" y2="340" stroke="#A855F7" stroke-width="2" opacity="0.3"/>

  <!-- Girl Gone AI branding -->
  <text x="300" y="370" text-anchor="middle" font-family="'Poppins', 'Segoe UI', Arial, sans-serif" font-size="12" font-weight="600" fill="white" opacity="0.45" letter-spacing="3">GIRL GONE AI</text>
</svg>