<svg xmlns="http://www.w3.org/2000/svg" viewBox="0 0 600 400" width="600" height="400">
  <defs>
    <linearGradient id="bg_37_agency_client_tracker_notion" x1="0%" y1="0%" x2="100%" y2="100%">
      <stop offset="0%" stop-color="#A855F7" stop-opacity="0.25"/>
      <stop offset="100%" stop-color="#7C3AED" stop-opacity="0.4"/>
    </linearGradient>
    <radialGradient id="glow_37_agency_client_tracker_notion" cx="50%" cy="45%" r="50%">
      <stop offset="0%" stop-color="#A855F7" stop-opacity="0.12"/>
      <stop offset="100%" stop-color="#7C3AED" stop-opacity="0"/>
    </radialGradient>
    <marker id="arrowhead" markerWidth="6" markerHeight="4" refX="6" refY="2" orient="auto">
      <polygon points="0 0, 6 2, 0 4" fill="#A855F7" opacity="0.3"/>
    </marker>
  </defs>

  <!-- Dark background -->
  <rect width="600" height="400" rx="16" fill="#0A0A14"/>

  <!-- Gradient overlay -->
  <rect width="600" height="400" rx="16" fill="url(#bg_37_agency_client_tracker_notion)"/>

  <!-- Center glow -->
  <ellipse cx="300" cy="180" rx="250" ry="180" fill="url(#glow_37_agency_client_tracker_notion)"/>

  <!-- Decorative elements -->
  <g>
    <rect x="198" y="194" width="39" height="41" rx="6" fill="#A855F7" opacity="0.11080449657893501" transform="rotate(15 217 214)"/>
    <rect x="273" y="268" width="22" height="32" rx="6" fill="#A855F7" opacity="0.07785259271920106" transform="rotate(10 284 284)"/>
    <rect x="493" y="205" width="23" height="37" rx="6" fill="#A855F7" opacity="0.0973854217644413" transform="rotate(7 504 223)"/>
    <rect x="183" y="219" width="40" height="29" rx="6" fill="#A855F7" opacity="0.14290773138611218" transform="rotate(-20 203 233)"/>
    <rect x="299" y="151" width="34" height="46" rx="6" fill="#A855F7" opacity="0.1260526197897896" transform="rotate(19 316 174)"/>
    <rect x="478" y="146" width="41" height="36" rx="6" fill="#A855F7" opacity="0.07070030895653964" transform="rotate(-3 498 164)"/>
  </g>

  <!-- Border -->
  <rect width="596" height="396" x="2" y="2" rx="14" fill="none" stroke="#A855F7" stroke-width="1" opacity="0.2"/>

  <!-- Category label at top -->
  <rect x="24" y="24" width="172" height="28" rx="6" fill="#A855F7" opacity="0.2"/>
  <text x="38" y="43" font-family="'Poppins', 'Segoe UI', Arial, sans-serif" font-size="11" font-weight="700" fill="#A855F7" letter-spacing="1.5" text-transform="uppercase">Notion Templates</text>

  <!-- Icon -->
  <text x="300" y="150" text-anchor="middle" font-size="48" fill="#A855F7" opacity="0.4">⬛</text>

  <!-- Product title -->
  <text x="300" y="200" text-anchor="middle" font-family="'Poppins', 'Segoe UI', Arial, sans-serif" font-size="26" font-weight="800" fill="white">
      <tspan x="300" dy="0">Digital Marketing Agency</tspan>
      <tspan x="300" dy="34">Client Tracker</tspan>
  </text>

  <!-- Bottom line accent -->
  <line x1="200" y1="340" x2="400" y2="340" stroke="#A855F7" stroke-width="2" opacity="0.3"/>

  <!-- Girl Gone AI branding -->
  <text x="300" y="370" text-anchor="middle" font-family="'Poppins', 'Segoe UI', Arial, sans-serif" font-size="12" font-weight="600" fill="white" opacity="0.45" letter-spacing="3">GIRL GONE AI</text>
</svg>