<svg xmlns="http://www.w3.org/2000/svg" viewBox="0 0 600 400" width="600" height="400">
  <defs>
    <linearGradient id="bg_39_ai_art_prompt_bible" x1="0%" y1="0%" x2="100%" y2="100%">
      <stop offset="0%" stop-color="#3B82F6" stop-opacity="0.25"/>
      <stop offset="100%" stop-color="#2563EB" stop-opacity="0.4"/>
    </linearGradient>
    <radialGradient id="glow_39_ai_art_prompt_bible" cx="50%" cy="45%" r="50%">
      <stop offset="0%" stop-color="#3B82F6" stop-opacity="0.12"/>
      <stop offset="100%" stop-color="#2563EB" stop-opacity="0"/>
    </radialGradient>
    <marker id="arrowhead" markerWidth="6" markerHeight="4" refX="6" refY="2" orient="auto">
      <polygon points="0 0, 6 2, 0 4" fill="#3B82F6" opacity="0.3"/>
    </marker>
  </defs>

  <!-- Dark background -->
  <rect width="600" height="400" rx="16" fill="#0A0A14"/>

  <!-- Gradient overlay -->
  <rect width="600" height="400" rx="16" fill="url(#bg_39_ai_art_prompt_bible)"/>

  <!-- Center glow -->
  <ellipse cx="300" cy="180" rx="250" ry="180" fill="url(#glow_39_ai_art_prompt_bible)"/>

  <!-- Decorative elements -->
  <g>
    <line x1="467" y1="204" x2="209" y2="243" stroke="#3B82F6" stroke-width="0.8" opacity="0.07981492538429029"/>
    <line x1="346" y1="187" x2="209" y2="243" stroke="#3B82F6" stroke-width="0.8" opacity="0.08377589501950453"/>
    <line x1="346" y1="187" x2="269" y2="121" stroke="#3B82F6" stroke-width="0.8" opacity="0.05654026114867938"/>
    <line x1="278" y1="282" x2="126" y2="334" stroke="#3B82F6" stroke-width="0.8" opacity="0.06418313875116691"/>
    <line x1="505" y1="137" x2="126" y2="334" stroke="#3B82F6" stroke-width="0.8" opacity="0.09314909395340307"/>
    <line x1="505" y1="137" x2="269" y2="121" stroke="#3B82F6" stroke-width="0.8" opacity="0.06612678106076919"/>
    <circle cx="467" cy="204" r="3" fill="#2563EB" opacity="0.16290296996582737"/>
    <circle cx="346" cy="187" r="3" fill="#2563EB" opacity="0.08427575452812058"/>
    <circle cx="209" cy="243" r="3" fill="#2563EB" opacity="0.14294741396623462"/>
    <circle cx="278" cy="282" r="3" fill="#2563EB" opacity="0.1589386182341207"/>
    <circle cx="505" cy="137" r="3" fill="#2563EB" opacity="0.1537308403048685"/>
    <circle cx="126" cy="334" r="3" fill="#2563EB" opacity="0.11857422255170655"/>
    <circle cx="269" cy="121" r="3" fill="#2563EB" opacity="0.16187935026528824"/>
  </g>

  <!-- Border -->
  <rect width="596" height="396" x="2" y="2" rx="14" fill="none" stroke="#3B82F6" stroke-width="1" opacity="0.2"/>

  <!-- Category label at top -->
  <rect x="24" y="24" width="163" height="28" rx="6" fill="#3B82F6" opacity="0.2"/>
  <text x="38" y="43" font-family="'Poppins', 'Segoe UI', Arial, sans-serif" font-size="11" font-weight="700" fill="#3B82F6" letter-spacing="1.5" text-transform="uppercase">AI Prompt Packs</text>

  <!-- Icon -->
  <text x="300" y="150" text-anchor="middle" font-size="48" fill="#3B82F6" opacity="0.4">⚛</text>

  <!-- Product title -->
  <text x="300" y="200" text-anchor="middle" font-family="'Poppins', 'Segoe UI', Arial, sans-serif" font-size="26" font-weight="800" fill="white">
      <tspan x="300" dy="0">AI Art Prompt Engineering</tspan>
      <tspan x="300" dy="34">Bible</tspan>
  </text>

  <!-- Bottom line accent -->
  <line x1="200" y1="340" x2="400" y2="340" stroke="#3B82F6" stroke-width="2" opacity="0.3"/>

  <!-- Girl Gone AI branding -->
  <text x="300" y="370" text-anchor="middle" font-family="'Poppins', 'Segoe UI', Arial, sans-serif" font-size="12" font-weight="600" fill="white" opacity="0.45" letter-spacing="3">GIRL GONE AI</text>
</svg>