<svg xmlns="http://www.w3.org/2000/svg" viewBox="0 0 600 400" width="600" height="400">
  <defs>
    <linearGradient id="bg_52_saas_metrics_dashboard_notion" x1="0%" y1="0%" x2="100%" y2="100%">
      <stop offset="0%" stop-color="#A855F7" stop-opacity="0.25"/>
      <stop offset="100%" stop-color="#7C3AED" stop-opacity="0.4"/>
    </linearGradient>
    <radialGradient id="glow_52_saas_metrics_dashboard_notion" cx="50%" cy="45%" r="50%">
      <stop offset="0%" stop-color="#A855F7" stop-opacity="0.12"/>
      <stop offset="100%" stop-color="#7C3AED" stop-opacity="0"/>
    </radialGradient>
    <marker id="arrowhead" markerWidth="6" markerHeight="4" refX="6" refY="2" orient="auto">
      <polygon points="0 0, 6 2, 0 4" fill="#A855F7" opacity="0.3"/>
    </marker>
  </defs>

  <!-- Dark background -->
  <rect width="600" height="400" rx="16" fill="#0A0A14"/>

  <!-- Gradient overlay -->
  <rect width="600" height="400" rx="16" fill="url(#bg_52_saas_metrics_dashboard_notion)"/>

  <!-- Center glow -->
  <ellipse cx="300" cy="180" rx="250" ry="180" fill="url(#glow_52_saas_metrics_dashboard_notion)"/>

  <!-- Decorative elements -->
  <g>
    <rect x="368" y="235" width="46" height="20" rx="6" fill="#A855F7" opacity="0.09556455372514963" transform="rotate(27 391 245)"/>
    <rect x="440" y="138" width="43" height="31" rx="6" fill="#A855F7" opacity="0.12966052662581273" transform="rotate(-29 461 153)"/>
    <rect x="117" y="252" width="47" height="41" rx="6" fill="#A855F7" opacity="0.07505244030262768" transform="rotate(-29 140 272)"/>
    <rect x="248" y="211" width="38" height="27" rx="6" fill="#A855F7" opacity="0.14326464704386205" transform="rotate(-21 267 224)"/>
    <rect x="471" y="133" width="34" height="20" rx="6" fill="#A855F7" opacity="0.13737359099103919" transform="rotate(7 488 143)"/>
    <rect x="465" y="298" width="22" height="30" rx="6" fill="#A855F7" opacity="0.0799735527271773" transform="rotate(19 476 313)"/>
  </g>

  <!-- Border -->
  <rect width="596" height="396" x="2" y="2" rx="14" fill="none" stroke="#A855F7" stroke-width="1" opacity="0.2"/>

  <!-- Category label at top -->
  <rect x="24" y="24" width="172" height="28" rx="6" fill="#A855F7" opacity="0.2"/>
  <text x="38" y="43" font-family="'Poppins', 'Segoe UI', Arial, sans-serif" font-size="11" font-weight="700" fill="#A855F7" letter-spacing="1.5" text-transform="uppercase">Notion Templates</text>

  <!-- Icon -->
  <text x="300" y="167" text-anchor="middle" font-size="48" fill="#A855F7" opacity="0.4">⬛</text>

  <!-- Product title -->
  <text x="300" y="217" text-anchor="middle" font-family="'Poppins', 'Segoe UI', Arial, sans-serif" font-size="26" font-weight="800" fill="white">
      <tspan x="300" dy="0">SaaS Metrics Dashboard</tspan>
  </text>

  <!-- Bottom line accent -->
  <line x1="200" y1="340" x2="400" y2="340" stroke="#A855F7" stroke-width="2" opacity="0.3"/>

  <!-- Girl Gone AI branding -->
  <text x="300" y="370" text-anchor="middle" font-family="'Poppins', 'Segoe UI', Arial, sans-serif" font-size="12" font-weight="600" fill="white" opacity="0.45" letter-spacing="3">GIRL GONE AI</text>
</svg>