<svg xmlns="http://www.w3.org/2000/svg" viewBox="0 0 600 400" width="600" height="400">
  <defs>
    <linearGradient id="bg_83_chatgpt_business_automation_prompts" x1="0%" y1="0%" x2="100%" y2="100%">
      <stop offset="0%" stop-color="#3B82F6" stop-opacity="0.25"/>
      <stop offset="100%" stop-color="#2563EB" stop-opacity="0.4"/>
    </linearGradient>
    <radialGradient id="glow_83_chatgpt_business_automation_prompts" cx="50%" cy="45%" r="50%">
      <stop offset="0%" stop-color="#3B82F6" stop-opacity="0.12"/>
      <stop offset="100%" stop-color="#2563EB" stop-opacity="0"/>
    </radialGradient>
    <marker id="arrowhead" markerWidth="6" markerHeight="4" refX="6" refY="2" orient="auto">
      <polygon points="0 0, 6 2, 0 4" fill="#3B82F6" opacity="0.3"/>
    </marker>
  </defs>

  <!-- Dark background -->
  <rect width="600" height="400" rx="16" fill="#0A0A14"/>

  <!-- Gradient overlay -->
  <rect width="600" height="400" rx="16" fill="url(#bg_83_chatgpt_business_automation_prompts)"/>

  <!-- Center glow -->
  <ellipse cx="300" cy="180" rx="250" ry="180" fill="url(#glow_83_chatgpt_business_automation_prompts)"/>

  <!-- Decorative elements -->
  <g>
    <line x1="205" y1="339" x2="125" y2="279" stroke="#3B82F6" stroke-width="0.8" opacity="0.061278870462026916"/>
    <line x1="205" y1="339" x2="272" y2="175" stroke="#3B82F6" stroke-width="0.8" opacity="0.08232738976511655"/>
    <line x1="417" y1="342" x2="149" y2="188" stroke="#3B82F6" stroke-width="0.8" opacity="0.05450361895388493"/>
    <line x1="417" y1="342" x2="559" y2="192" stroke="#3B82F6" stroke-width="0.8" opacity="0.08327145631388391"/>
    <line x1="417" y1="342" x2="272" y2="175" stroke="#3B82F6" stroke-width="0.8" opacity="0.07954502552581619"/>
    <line x1="125" y1="279" x2="149" y2="188" stroke="#3B82F6" stroke-width="0.8" opacity="0.04167978436424547"/>
    <line x1="75" y1="116" x2="149" y2="188" stroke="#3B82F6" stroke-width="0.8" opacity="0.042999050142546597"/>
    <line x1="75" y1="116" x2="272" y2="175" stroke="#3B82F6" stroke-width="0.8" opacity="0.09742504382744835"/>
    <circle cx="205" cy="339" r="3" fill="#2563EB" opacity="0.15736935014420234"/>
    <circle cx="417" cy="342" r="3" fill="#2563EB" opacity="0.08410025720840876"/>
    <circle cx="125" cy="279" r="3" fill="#2563EB" opacity="0.09492396415911064"/>
    <circle cx="75" cy="116" r="3" fill="#2563EB" opacity="0.10775588800343823"/>
    <circle cx="149" cy="188" r="3" fill="#2563EB" opacity="0.1057613231170906"/>
    <circle cx="559" cy="192" r="3" fill="#2563EB" opacity="0.16999132436291525"/>
    <circle cx="272" cy="175" r="3" fill="#2563EB" opacity="0.12556692226763222"/>
  </g>

  <!-- Border -->
  <rect width="596" height="396" x="2" y="2" rx="14" fill="none" stroke="#3B82F6" stroke-width="1" opacity="0.2"/>

  <!-- Category label at top -->
  <rect x="24" y="24" width="163" height="28" rx="6" fill="#3B82F6" opacity="0.2"/>
  <text x="38" y="43" font-family="'Poppins', 'Segoe UI', Arial, sans-serif" font-size="11" font-weight="700" fill="#3B82F6" letter-spacing="1.5" text-transform="uppercase">AI Prompt Packs</text>

  <!-- Icon -->
  <text x="300" y="150" text-anchor="middle" font-size="48" fill="#3B82F6" opacity="0.4">⚛</text>

  <!-- Product title -->
  <text x="300" y="200" text-anchor="middle" font-family="'Poppins', 'Segoe UI', Arial, sans-serif" font-size="26" font-weight="800" fill="white">
      <tspan x="300" dy="0">ChatGPT Business Automation</tspan>
      <tspan x="300" dy="34">Prompts</tspan>
  </text>

  <!-- Bottom line accent -->
  <line x1="200" y1="340" x2="400" y2="340" stroke="#3B82F6" stroke-width="2" opacity="0.3"/>

  <!-- Girl Gone AI branding -->
  <text x="300" y="370" text-anchor="middle" font-family="'Poppins', 'Segoe UI', Arial, sans-serif" font-size="12" font-weight="600" fill="white" opacity="0.45" letter-spacing="3">GIRL GONE AI</text>
</svg>