<svg xmlns="http://www.w3.org/2000/svg" viewBox="0 0 600 400" width="600" height="400">
  <defs>
    <linearGradient id="bg_92_notion_crm_solopreneurs" x1="0%" y1="0%" x2="100%" y2="100%">
      <stop offset="0%" stop-color="#A855F7" stop-opacity="0.25"/>
      <stop offset="100%" stop-color="#7C3AED" stop-opacity="0.4"/>
    </linearGradient>
    <radialGradient id="glow_92_notion_crm_solopreneurs" cx="50%" cy="45%" r="50%">
      <stop offset="0%" stop-color="#A855F7" stop-opacity="0.12"/>
      <stop offset="100%" stop-color="#7C3AED" stop-opacity="0"/>
    </radialGradient>
    <marker id="arrowhead" markerWidth="6" markerHeight="4" refX="6" refY="2" orient="auto">
      <polygon points="0 0, 6 2, 0 4" fill="#A855F7" opacity="0.3"/>
    </marker>
  </defs>

  <!-- Dark background -->
  <rect width="600" height="400" rx="16" fill="#0A0A14"/>

  <!-- Gradient overlay -->
  <rect width="600" height="400" rx="16" fill="url(#bg_92_notion_crm_solopreneurs)"/>

  <!-- Center glow -->
  <ellipse cx="300" cy="180" rx="250" ry="180" fill="url(#glow_92_notion_crm_solopreneurs)"/>

  <!-- Decorative elements -->
  <g>
    <rect x="51" y="117" width="42" height="30" rx="6" fill="#A855F7" opacity="0.1255232718933335" transform="rotate(14 72 132)"/>
    <rect x="294" y="111" width="42" height="26" rx="6" fill="#A855F7" opacity="0.13033121500006928" transform="rotate(25 315 124)"/>
    <rect x="117" y="314" width="27" height="32" rx="6" fill="#A855F7" opacity="0.11367926199373542" transform="rotate(28 130 330)"/>
    <rect x="156" y="316" width="32" height="38" rx="6" fill="#A855F7" opacity="0.12901195741923688" transform="rotate(11 172 335)"/>
    <rect x="468" y="134" width="41" height="28" rx="6" fill="#A855F7" opacity="0.1398001198772718" transform="rotate(7 488 148)"/>
    <rect x="316" y="150" width="31" height="40" rx="6" fill="#A855F7" opacity="0.0863887758533204" transform="rotate(30 331 170)"/>
  </g>

  <!-- Border -->
  <rect width="596" height="396" x="2" y="2" rx="14" fill="none" stroke="#A855F7" stroke-width="1" opacity="0.2"/>

  <!-- Category label at top -->
  <rect x="24" y="24" width="172" height="28" rx="6" fill="#A855F7" opacity="0.2"/>
  <text x="38" y="43" font-family="'Poppins', 'Segoe UI', Arial, sans-serif" font-size="11" font-weight="700" fill="#A855F7" letter-spacing="1.5" text-transform="uppercase">Notion Templates</text>

  <!-- Icon -->
  <text x="300" y="167" text-anchor="middle" font-size="48" fill="#A855F7" opacity="0.4">⬛</text>

  <!-- Product title -->
  <text x="300" y="217" text-anchor="middle" font-family="'Poppins', 'Segoe UI', Arial, sans-serif" font-size="26" font-weight="800" fill="white">
      <tspan x="300" dy="0">Notion CRM for Solopreneurs</tspan>
  </text>

  <!-- Bottom line accent -->
  <line x1="200" y1="340" x2="400" y2="340" stroke="#A855F7" stroke-width="2" opacity="0.3"/>

  <!-- Girl Gone AI branding -->
  <text x="300" y="370" text-anchor="middle" font-family="'Poppins', 'Segoe UI', Arial, sans-serif" font-size="12" font-weight="600" fill="white" opacity="0.45" letter-spacing="3">GIRL GONE AI</text>
</svg>